<svg xmlns="http://www.w3.org/2000/svg" width="198.676" height="96.59"><g data-name="그룹 470704"><path fill="rgba(255,255,255,0)" d="M0 0h198.676v96.59H0z" data-name="사각형 2587"/><g fill="#fff" data-name="그룹 3288"><path d="M55.296 58.777a11.5 11.5 0 1 1 6.093-21.246l-6.093 9.752 11.469-6.624a15.471 15.471 0 0 0-5.2-5 21.388 21.388 0 0 0-10.8-2.663c-6.036 0-11.327 2.189-14.282 5.474a12.876 12.876 0 0 0 0 17.617c2.961 3.292 8.174 5.474 14.108 5.474s11.146-2.185 14.108-5.474q.244-.271.471-.551l-.451-1.677a11.481 11.481 0 0 1-9.426 4.914" data-name="패스 2508"/><path d="M78.635 58.08a4.18 4.18 0 1 1 4.18-4.18 4.18 4.18 0 0 1-4.18 4.18m14.683 2.788L88.503 42.91a6.795 6.795 0 0 0-8.886-4.626l-10.363 3.772h10.659l1.822 6.8a10.054 10.054 0 0 0-6.588-2.447c-5 0-9.056 3.355-9.056 7.491s4.055 7.489 9.056 7.489a10.79 10.79 0 0 0 8.75-4.467l1.056 3.946Z" data-name="패스 2509"/><path d="M112.948 37.876a4.17 4.17 0 0 0-1.768.391l-6.65 3.1a4.181 4.181 0 0 0-5.891-3.1l-8.123 3.788h5.711v18.812h8.36V44.145a2.09 2.09 0 0 1 4.18 0v16.722h8.361V42.056a4.18 4.18 0 0 0-4.18-4.18" data-name="패스 2510"/><path d="M165.375 37.876a4.169 4.169 0 0 0-1.768.391l-6.649 3.1a4.182 4.182 0 0 0-5.892-3.1l-8.125 3.788h5.712v18.812h8.36V44.145a2.09 2.09 0 0 1 4.18 0v16.722h8.361V42.056a4.181 4.181 0 0 0-4.18-4.18" data-name="패스 2511"/><path d="M132.951 41.473a2.612 2.612 0 1 0-5.045 1.352l4.054 15.142a2.613 2.613 0 0 0 5.048-1.352Zm11.35 8.247a11.844 11.844 0 1 1-11.85-11.843 11.844 11.844 0 0 1 11.844 11.843" data-name="패스 2512"/></g></g></svg>