<svg xmlns="http://www.w3.org/2000/svg" width="226.871" height="100.245" data-name="그룹 470705"><path fill="rgba(255,255,255,0)" d="M0 0h226.871v100.245H0z" data-name="사각형 2585"/><g fill="#383838" data-name="그룹 3305" style="isolation:isolate"><path d="M14.504 45.236a8.922 8.922 0 0 0-8.94 9.259 8.819 8.819 0 0 0 8.94 9.134 9.442 9.442 0 0 0 7.386-3.532 2.659 2.659 0 0 0-2.356-1.24c-1.571 0-1.924 1.571-5.03 1.571a5.732 5.732 0 0 1-5.566-5.933 5.838 5.838 0 0 1 5.566-6.051c2.775 0 3.44 1.647 4.867 1.647a3.393 3.393 0 0 0 2.453-1.32 9.31 9.31 0 0 0-7.32-3.535" data-name="패스 359"/><path d="M32.741 45.771h-7.268a1.892 1.892 0 0 0-2.089 1.909v1.072h3.24s.125 10.948-.016 12.131a4.669 4.669 0 0 1-2.518 4.041 2.578 2.578 0 0 0-1.814 2.756c.025.086.06.137.109.141h.03c.061-.018 1.7-.42 1.934-.519l-.006-.007a8.243 8.243 0 0 0 5.005-3.706 9.8 9.8 0 0 0 1.03-5.081v-9.756h.154a2 2 0 0 0 2.211-1.91V45.77" data-name="패스 360"/><path d="M70.227 40.013c-7.58-2.978-15.241-2.667-17.2.865l.019-.021c-1.956 3.535.9 11.886 6.3 18.811s13 6.7 17.206-.88l-.039.045c4.2-7.565 1.291-15.838-6.288-18.82" data-name="패스 361"/><path d="M55.79 66.628c-1.071-8.074-5.057-14.621-9.094-14.621l.028.01c-4.043 0-9.952 6.548-13.4 14.623s.453 14.624 9.111 14.624l-.057-.01c8.658 0 14.473-6.551 13.407-14.625" data-name="패스 362"/><path d="M31.675 42.433c6.728 4.595 14.262 6 16.959 2.989l-.025.012c2.693-3 1.764-11.778-1.953-19.733s-11.192-9.422-16.968-2.977l.047-.032c-5.78 6.444-4.783 15.148 1.941 19.74" data-name="패스 363"/><path d="M124.939 45.627h-7.294a1.806 1.806 0 0 0-1.233.38 1.412 1.412 0 0 0-.427 1.11v12.652h7.294c.985 0 1.657-.49 1.66-1.42v-1.112H120.339a1.283 1.283 0 0 0-1.193.547l-.05.089v-3.886h3.872c.986 0 1.659-.493 1.659-1.424v-1.115h-4.239a1.356 1.356 0 0 0-1.242.55l-.05.086v-3.916h4.18a1.5 1.5 0 0 0 1.66-1.515v-1.026" data-name="패스 364"/><path d="M160.855 45.627h-7.29a1.807 1.807 0 0 0-1.234.38 1.415 1.415 0 0 0-.426 1.11v12.652h7.291c.986 0 1.658-.49 1.66-1.42v-1.112H156.256a1.279 1.279 0 0 0-1.19.547l-.051.089v-3.886h3.872c.987 0 1.659-.493 1.66-1.424v-1.115h-4.24a1.355 1.355 0 0 0-1.241.55l-.051.086v-3.916h4.178a1.5 1.5 0 0 0 1.66-1.515v-1.026" data-name="패스 365"/><path d="M104.727 45.616h-1.463a1.8 1.8 0 0 0-1.234.38 1.414 1.414 0 0 0-.425 1.11v12.669h1.314c.985 0 1.786-.493 1.788-1.419V57.6l.009-3.628h3.874a1.7 1.7 0 0 0 1.372-.544l.049-.059v4.228l-.013 2.182h1.466a1.794 1.794 0 0 0 1.234-.38 1.414 1.414 0 0 0 .426-1.109V45.626h-1.443c-.986 0-1.66.491-1.661 1.42l-.009.758v3.632H106a1.344 1.344 0 0 0-1.233.548l-.05.087V47.8l.011-2.181" data-name="패스 366"/><path d="M130.759 45.626h-1.465a1.6 1.6 0 0 0-1.66 1.643l-.011 12.5h1.469a1.8 1.8 0 0 0 1.234-.381 1.413 1.413 0 0 0 .427-1.109l.006-12.659" data-name="패스 367"/><path d="M196.288 45.626h-2.718c-.987 0-1.658.489-1.661 1.42l-.08 12.722h1.5c.985 0 1.656-.489 1.66-1.42l-.2-9.964 5.624 11.393h2.72a2.1 2.1 0 0 0 .961-.206 1.285 1.285 0 0 0 .709-1.219l-.227-12.725h-1.191a2.092 2.092 0 0 0-.96.206 1.274 1.274 0 0 0-.709 1.217l-.05 9.349-5.379-10.775" data-name="패스 368"/><path d="M143.155 45.714v.054a2.889 2.889 0 0 0-1.484.3 1.23 1.23 0 0 0-.553 1.154v1.038h3.3v.054s.051 4.536.051 8.131c0 2.041-.016 3.772-.068 4.216v.015a4.79 4.79 0 0 1-2.591 4.144 2.99 2.99 0 0 0-1.517 1.231 3.884 3.884 0 0 0-.295 1.518.212.212 0 0 0 .035.077l.024.016h.011c.034-.008.464-.116.917-.232.371-.1.765-.2.955-.262l-.011-.009.1-.031a8.347 8.347 0 0 0 5.063-3.743s.014-.022.042-.073a10.391 10.391 0 0 0 1-4.964V48.262h.209a1.976 1.976 0 0 0 2.195-1.888l-.027-.6h-7.343v-.054" data-name="패스 369"/><path d="m214.227 45.093-.01.012h-.019a7 7 0 0 0-7.365 7.329 7.306 7.306 0 0 0 7.455 7.614h.019a6.283 6.283 0 0 0 5.77-3.077 8.835 8.835 0 0 0 1.012-4.468c0-.436-.023-.745-.03-.846h-3.82a2.845 2.845 0 0 0-1.475.389 1.311 1.311 0 0 0-.683 1.119v1.026h3.116v.065a2.847 2.847 0 0 1-.57 1.717 3.924 3.924 0 0 1-3.332 1.262 4.207 4.207 0 0 1-2.989-1.171 4.91 4.91 0 0 1-1.327-3.63 4.81 4.81 0 0 1 1.112-3.166 4.014 4.014 0 0 1 3.095-1.364h.027a3.838 3.838 0 0 1 2.178.519 2.242 2.242 0 0 0 1.3.5 2.31 2.31 0 0 0 1.4-.488 4.553 4.553 0 0 0 .615-.585 6.329 6.329 0 0 0-5.468-2.76" data-name="패스 370"/><path d="M91.913 45.236a8.921 8.921 0 0 0-8.944 9.223v.073a8.818 8.818 0 0 0 8.944 9.1 9.446 9.446 0 0 0 7.386-3.531 2.662 2.662 0 0 0-2.359-1.24c-1.57 0-1.921 1.57-5.028 1.57a5.733 5.733 0 0 1-5.57-5.932 5.84 5.84 0 0 1 5.57-6.052c2.772 0 3.435 1.647 4.865 1.647a3.4 3.4 0 0 0 2.455-1.32 9.315 9.315 0 0 0-7.32-3.535" data-name="패스 371"/><path d="M166.575 57.598V48.36h1.571a4.289 4.289 0 0 1 4.419 4.384 4.216 4.216 0 0 1-4.419 4.295h-.482a1.231 1.231 0 0 0-1.089.559m.04-12h-1.569a1.629 1.629 0 0 0-1.674 1.671l-.008 12.531h4.786c4.223 0 7.556-3.061 7.556-7.05a7.3 7.3 0 0 0-7.556-7.146h-1.531" data-name="패스 372"/><path d="M182.74 45.746c-.761 0-1.343.191-1.6.727l-5.7 13.166h1.81c.075.006.151.01.223.01a1.42 1.42 0 0 0 1.471-.912v-.008l3.772-8.845 1.779 4.145.115.269h-1.162a1.7 1.7 0 0 0-1.178.391 2.679 2.679 0 0 0-.687 1.1l-.406.988h4.53l1.217 2.766.031.093h1.308a1.794 1.794 0 0 0 1.122-.326 1.168 1.168 0 0 0 .425-.955v-.089l-.053-.116-5.555-12.4h-1.467" data-name="패스 373"/><path d="M138.089 57.052a1.2 1.2 0 0 0-1.068.543l-.048.087V45.62h-1.46a1.6 1.6 0 0 0-1.665 1.641v12.5h6.613a1.483 1.483 0 0 0 1.66-1.489V57.05Z" data-name="패스 374"/></g></svg>