<svg xmlns="http://www.w3.org/2000/svg" width="226.871" height="100.245" data-name="그룹 470707"><path fill="rgba(255,255,255,0)" d="M0 0h226.871v100.245H0z" data-name="사각형 2590"/><g fill="#383838" data-name="그룹 7128"><path d="M69.746 62.49c13.549-16 18.02-34.484 9.993-41.281-6.129-5.189-17.774-2.057-28.969 6.832v21.913h-5.7V33.111l-.029.028v-5.415H29.863v7.939h12.763a78.254 78.254 0 0 0-1.954 2.21c-13.549 16-18.022 34.48-9.993 41.276 5.642 4.78 15.961 2.507 26.3-4.821V52.071h5.695v23.312h15.191v-7.94H65.15a75.112 75.112 0 0 0 4.596-4.953Z" data-name="패스 5440"/><g data-name="그룹 7127"><g data-name="그룹 7125"><path d="M91.757 32.618a3.668 3.668 0 0 1-1.084-.118 2.29 2.29 0 0 1-.718-.42l-1.551-1.548a.558.558 0 0 1-.092-.739q.239-.368.866-.135a11.528 11.528 0 0 0 1.528.42 9.637 9.637 0 0 0 1.862.151h11.35q1.069.033 1.235.588a2.067 2.067 0 0 1 .018 1.126q-1.217 4.032-6.43 8.2a32.818 32.818 0 0 1-10.742 5.88q-.884.269-1.253-.235t.405-.974a32.334 32.334 0 0 0 8.089-6.6 17.284 17.284 0 0 0 3.556-5.594Zm12.455 12.263a14.714 14.714 0 0 1 7.039 1.731 5.563 5.563 0 0 1 0 10.112 15.18 15.18 0 0 1-14.078 0 5.563 5.563 0 0 1 0-10.112 14.713 14.713 0 0 1 7.039-1.732Zm-4.939 6.786a3.9 3.9 0 0 0 1.511 3.175 5.349 5.349 0 0 0 6.817 0 3.866 3.866 0 0 0 1.549-3.175 3.806 3.806 0 0 0-1.549-3.174 5.465 5.465 0 0 0-6.817 0 3.841 3.841 0 0 0-1.511 3.174Zm16.288-17.2 4.164-.268q1.142-.067 1.16 1.427t-1.16 1.495h-4.162v5.511a2.781 2.781 0 0 1-.737 1.881 2.35 2.35 0 0 1-1.842.841h-1.585a1.08 1.08 0 0 1-.7-.185.767.767 0 0 1-.221-.622V30.703a1.573 1.573 0 0 0-.994-1.512q-.995-.469-1.621-.773-.516-.269-.35-.689a.505.505 0 0 1 .534-.385l6.781.672q.59.067.663.32a1.5 1.5 0 0 1 .074.352Z" data-name="패스 5441"/><path d="M141.726 39.975q3.355-.034 5.638-.2a7.673 7.673 0 0 0 4.2-1.646v-7.426a1.575 1.575 0 0 0-.995-1.512q-.995-.469-1.621-.773c-.346-.179-.462-.409-.352-.689a.507.507 0 0 1 .535-.385l6.781.672q.588.067.662.32a1.519 1.519 0 0 1 .074.352v4.771l4.166-.269q1.141-.067 1.16 1.429t-1.16 1.495h-4.162v5.778a2.783 2.783 0 0 1-.736 1.882 2.355 2.355 0 0 1-1.842.839h-1.586a1.082 1.082 0 0 1-.7-.185.764.764 0 0 1-.221-.621v-3.562a7.445 7.445 0 0 1-3.555 1.562 33.136 33.136 0 0 1-5.362.352h-9.139q-2.322 0-2.783-.991a4.082 4.082 0 0 1-.459-1.63v-6.282a1.537 1.537 0 0 0-.683-1.444c-.454-.269-.9-.538-1.345-.806q-.7-.335-.552-.706a.655.655 0 0 1 .626-.4l6.56.671c.392.046.608.163.645.354s.056.3.056.319v7.357c.047.627.214 1.013.5 1.16a2.461 2.461 0 0 0 1.124.218Zm14.262 15.357a2.05 2.05 0 0 1-.757 1.681 2.96 2.96 0 0 1-1.822.538h-16.031a3.1 3.1 0 0 1-1.75-.554 1.9 1.9 0 0 1-.83-1.7v-5.679a2.1 2.1 0 0 0-.275-1.16 2.411 2.411 0 0 0-.681-.688 7.088 7.088 0 0 0-.923-.47q-.478-.2-.478-.4a1.082 1.082 0 0 1 .091-.42c.062-.145.216-.217.462-.217h22.258a.845.845 0 0 1 .57.151.679.679 0 0 1 .167.521Zm-15.884-.94a1.018 1.018 0 0 0 .37.858 1.521 1.521 0 0 0 .958.285h7.92a1.426 1.426 0 0 0 .939-.319 1.022 1.022 0 0 0 .388-.824v-6.117h-10.575Z" data-name="패스 5442"/><path d="M187.311 43.873v11.661a2.712 2.712 0 0 1-.774 1.881 2.459 2.459 0 0 1-1.879.84h-1.4a1.082 1.082 0 0 1-.7-.185.768.768 0 0 1-.221-.622V43.873l-10.539.033a3.174 3.174 0 0 1-1.18-.118 2.914 2.914 0 0 1-.479-.419l-1.18-1.545q-.331-.572 0-.874a.746.746 0 0 1 .886-.033 6.862 6.862 0 0 0 1.51.487 17.2 17.2 0 0 0 2.138.084l17.024-.034a41.167 41.167 0 0 0 .572-4.1 46.437 46.437 0 0 0 .239-5.308h-15.809a4.14 4.14 0 0 1-1.124-.135 1.707 1.707 0 0 1-.534-.4l-1.07-1.311c-.221-.38-.227-.666-.019-.856a.734.734 0 0 1 .867-.018 4.571 4.571 0 0 0 1.475.421 83.67 83.67 0 0 0 2.1.016h18.61a1.063 1.063 0 0 1 1.014.538 2.143 2.143 0 0 1 .2 1.075 26.821 26.821 0 0 1-1.344 6.065 14.628 14.628 0 0 1-2.083 4.015h5.858q1.659 0 1.659 1.209t-1.659 1.208Z" data-name="패스 5443"/></g><g data-name="그룹 7126"><path d="m99.255 71.415-.014-1.007a2.992 2.992 0 0 1-1.014.854 3.306 3.306 0 0 1-1.667.4 4.407 4.407 0 0 1-3.453-1.471 6.141 6.141 0 0 1-.027-7.554 4.4 4.4 0 0 1 3.48-1.458 4.164 4.164 0 0 1 3.2 1.173 4.938 4.938 0 0 1 1.313 2.181l-1.986-.015a3.092 3.092 0 0 0-.765-1.119 2.281 2.281 0 0 0-1.695-.59 2.546 2.546 0 0 0-2.154 1.007 4.186 4.186 0 0 0-.764 2.6 4.263 4.263 0 0 0 .764 2.624 2.535 2.535 0 0 0 2.154 1.02 2.159 2.159 0 0 0 1.855-.815 4.41 4.41 0 0 0 .785-1.57h-2.515V66.19h4.381l.014 5.221Z" data-name="패스 5444"/><path d="M103.979 71.416h-1.862l3.987-9.98h2.1l4 9.967h-1.889l-.9-2.253h-4.533Zm3.182-7.938-1.639 4.094h3.251Z" data-name="패스 5445"/><path d="m119.344 71.443-4.14-7.1-.028 7.1h-1.834v-9.981h2.182l4.209 7.1v-7.1h1.821v9.981Z" data-name="패스 5446"/><path d="m130.737 71.415-.014-1.007a2.991 2.991 0 0 1-1.016.854 3.3 3.3 0 0 1-1.667.4 4.408 4.408 0 0 1-3.453-1.471 6.143 6.143 0 0 1-.027-7.554 4.4 4.4 0 0 1 3.48-1.458 4.16 4.16 0 0 1 3.2 1.173 4.931 4.931 0 0 1 1.313 2.181l-1.986-.015a3.1 3.1 0 0 0-.764-1.119 2.282 2.282 0 0 0-1.7-.59 2.544 2.544 0 0 0-2.153 1.007 4.177 4.177 0 0 0-.764 2.6 4.255 4.255 0 0 0 .764 2.624 2.532 2.532 0 0 0 2.153 1.02 2.155 2.155 0 0 0 1.854-.815 4.389 4.389 0 0 0 .785-1.57h-2.514V66.19h4.376l.013 5.221Z" data-name="패스 5447"/><path d="m145.532 71.443-4.141-7.1-.028 7.1h-1.833v-9.981h2.181l4.209 7.1v-7.1h1.821v9.981Z" data-name="패스 5448"/><path d="M150.895 71.416h-1.863l3.989-9.98h2.1l4 9.967h-1.89l-.9-2.253h-4.53Zm3.182-7.938-1.638 4.094h3.249Z" data-name="패스 5449"/><path d="M168.275 71.388v-5.62l-2.069 5.633h-2.1l-2.07-5.593v5.58h-1.792v-9.94h2.181l2.752 7.753 2.695-7.753h2.181l.015 9.94Z" data-name="패스 5450"/><path d="m184.321 71.415-.014-1.007a3 3 0 0 1-1.014.854 3.3 3.3 0 0 1-1.667.4 4.407 4.407 0 0 1-3.453-1.471 6.14 6.14 0 0 1-.026-7.554 4.393 4.393 0 0 1 3.479-1.458 4.165 4.165 0 0 1 3.2 1.173 4.945 4.945 0 0 1 1.312 2.181l-1.986-.015a3.122 3.122 0 0 0-.764-1.119 2.284 2.284 0 0 0-1.7-.59 2.543 2.543 0 0 0-2.153 1.007 4.178 4.178 0 0 0-.764 2.6 4.255 4.255 0 0 0 .764 2.624 2.532 2.532 0 0 0 2.153 1.02 2.157 2.157 0 0 0 1.855-.815 4.422 4.422 0 0 0 .785-1.57h-2.514V66.19h4.375l.014 5.221Z" data-name="패스 5451"/><path d="M196.089 68.261a3.125 3.125 0 0 1-1.1 2.479 5.088 5.088 0 0 1-5.933 0 3.143 3.143 0 0 1-1.089-2.479l.013-6.785h1.82v6.321a3.447 3.447 0 0 0 .369 1.551q.367.742 1.854.742c.991 0 1.61-.249 1.861-.748a3.407 3.407 0 0 0 .375-1.545l-.013-6.321h1.847Z" data-name="패스 5452"/></g></g></g></svg>