<svg xmlns="http://www.w3.org/2000/svg" width="227.167" height="99.978" data-name="그룹 470701"><path fill="rgba(255,255,255,0)" d="M0 0h227.168v99.978H0z" data-name="사각형 2589"/><g data-name="그룹 16" style="isolation:isolate"><g fill="#383838" data-name="그룹 7"><path d="M125.488 60.612h-3.3v-18.6h-10.264v-3h13.564Zm5.882-23.256h3.331v26.767h-3.331Z" data-name="패스 6"/><path d="m154.961 50.59-5.583-8.132-5.554 8.346-2.67-1.771 8.222-12 8.251 11.734Zm7.38 7.831a5.924 5.924 0 0 1-.555 2.537 6.643 6.643 0 0 1-3.689 3.511 7.005 7.005 0 0 1-2.687.524 7.09 7.09 0 0 1-2.7-.524 7.265 7.265 0 0 1-2.251-1.425 7.051 7.051 0 0 1-1.484-2.086 6.072 6.072 0 0 1 0-5.071 7.026 7.026 0 0 1 1.484-2.088 7.214 7.214 0 0 1 2.251-1.424 7.093 7.093 0 0 1 2.7-.526 7.007 7.007 0 0 1 2.688.526 6.63 6.63 0 0 1 3.689 3.512 5.9 5.9 0 0 1 .555 2.534Zm-3.241-.03a3.475 3.475 0 0 0-1.11-2.579 3.624 3.624 0 0 0-2.611-1.081 3.564 3.564 0 0 0-2.594 1.081 3.6 3.6 0 0 0 0 5.177 3.6 3.6 0 0 0 2.594 1.064 3.659 3.659 0 0 0 2.611-1.064 3.469 3.469 0 0 0 1.111-2.599Zm4.591-16.264h3.84v3.272h-3.84v5.671h-3.3V37.356h3.3Z" data-name="패스 7"/><path d="M172.404 42.368v-2.792h6.27v-2.55h3.542v2.55h5.972v2.792h-6.511l6.751 6.84-2.161 2.041-5.821-6.062-5.761 6.541-2.221-2.069 6.783-7.292Zm21.364 16.053a5.932 5.932 0 0 1-.553 2.537 7.083 7.083 0 0 1-1.486 2.086 6.977 6.977 0 0 1-2.2 1.425 7.267 7.267 0 0 1-5.417 0 6.945 6.945 0 0 1-2.22-1.425 7.017 7.017 0 0 1-1.484-2.086 6.059 6.059 0 0 1 0-5.071 6.993 6.993 0 0 1 1.484-2.088 6.9 6.9 0 0 1 2.22-1.424 7.241 7.241 0 0 1 5.417 0 6.929 6.929 0 0 1 2.2 1.424 7.058 7.058 0 0 1 1.486 2.088 5.908 5.908 0 0 1 .553 2.534Zm-3.27-.03a3.5 3.5 0 0 0-1.095-2.579 3.608 3.608 0 0 0-2.626-1.081 3.661 3.661 0 1 0 0 7.322 3.643 3.643 0 0 0 2.626-1.064 3.489 3.489 0 0 0 1.095-2.599Zm2.221-6.781v-5.106h-4.682v-2.846h4.682v-6.3h3.33v14.251Z" data-name="패스 8"/></g><g data-name="그룹 15"><g data-name="그룹 14"><g data-name="그룹 13"><g data-name="그룹 12"><g data-name="그룹 11"><g data-name="그룹 10"><g data-name="그룹 8"><path fill="#383838" d="M81.047 48.183a11.715 11.715 0 0 0-16.664 3.5 11.726 11.726 0 0 1-21.2-3.224c-.013-.044-.021-.079-.033-.123l-.039-.149a15.006 15.006 0 0 1-.6-4.658c0-10.509 10.781-22.21 26.311-22.21 15.9 0 25 12.105 27.343 18.833-.04-.117-.076-.235-.118-.357a33.488 33.488 0 0 0-65.165 10.863c0 16.53 11.922 30.678 28.458 30.678 13.192 0 22.054-7.4 26.121-17.586a12.9 12.9 0 0 0-4.414-15.567Z" data-name="패스 9"/></g><g data-name="그룹 9"><path fill="#383838" d="M96.373 40.805c-1.954-6.563-11.121-19.487-27.551-19.487-15.531 0-26.311 11.7-26.311 22.21a15.005 15.005 0 0 0 .6 4.658 9.807 9.807 0 0 1-.309-2.39c0-10.942 10.96-18.527 22.223-18.527a27.608 27.608 0 0 1 27.608 27.606A30.432 30.432 0 0 1 75.76 82.143v.008a33.494 33.494 0 0 0 22.082-31.493 33.069 33.069 0 0 0-1.469-9.853Z" data-name="패스 10"/></g></g></g></g></g></g></g></g></svg>