<svg xmlns="http://www.w3.org/2000/svg" width="226.111" height="100.122"><defs><clipPath id="a"><path fill="#fff" d="M0 0h171.16v54.779H0z" data-name="사각형 1121"/></clipPath></defs><g data-name="그룹 470698"><path fill="rgba(255,255,255,0)" d="M0 0h226.111v100.122H0z" data-name="사각형 2589"/><path fill="none" d="M26 22.603h174.111v54.519H26z" data-name="사각형 354083"/><path fill="#fff" d="M48.405 68.732v5.287l-3.223-5.287h-1.568v7.917h1.482V71.49l3.2 5.159h1.6v-7.917Z" data-name="패스 5893"/><g data-name="그룹 7268"><g fill="#fff" clip-path="url(#a)" data-name="그룹 7267" transform="translate(27.022 22)"><path d="M23.873 51.701a3.019 3.019 0 0 1 .375-1.451 2.577 2.577 0 0 1 1.05-1.093 3.166 3.166 0 0 1 1.533-.375 2.857 2.857 0 0 1 2.123.847 3.173 3.173 0 0 1-.012 4.3 2.815 2.815 0 0 1-2.111.847 3.3 3.3 0 0 1-1.5-.359 2.446 2.446 0 0 1-1.08-1.042 3.474 3.474 0 0 1-.375-1.678m1.545.088a1.924 1.924 0 0 0 .414 1.3 1.328 1.328 0 0 0 2 0 1.978 1.978 0 0 0 .4-1.311 1.916 1.916 0 0 0-.4-1.3 1.328 1.328 0 0 0-2 0 1.908 1.908 0 0 0-.414 1.305" data-name="패스 5894"/><path d="M30.65 53.129h1.522v1.522H30.65z" data-name="사각형 1120"/><path d="M36.937 54.65h-1.511v-5.723a5.158 5.158 0 0 1-1.962 1.149v-1.372a4.512 4.512 0 0 0 1.3-.742 2.738 2.738 0 0 0 .948-1.264h1.226Z" data-name="패스 5895"/><path d="M41.627 50.738a5 5 0 0 1 .367-2.029 3.577 3.577 0 0 1 .745-1.085 3.112 3.112 0 0 1 1.023-.719 4.321 4.321 0 0 1 1.706-.313 3.738 3.738 0 0 1 2.8 1.092 4.846 4.846 0 0 1 .012 6.018 4.181 4.181 0 0 1-5.6.006 4.086 4.086 0 0 1-1.05-2.969m1.651-.057a2.975 2.975 0 0 0 .624 2.042 2.127 2.127 0 0 0 3.149 0 3.048 3.048 0 0 0 .6-2.069 2.945 2.945 0 0 0-.6-2.025 1.984 1.984 0 0 0-1.581-.671 2.022 2.022 0 0 0-1.588.676 2.982 2.982 0 0 0-.612 2.042" data-name="패스 5896"/><path d="m51.787 54.651-2.3-5.743h1.592l1.071 2.928.32.983c.082-.252.136-.412.152-.5.044-.16.105-.321.16-.487l1.092-2.928h1.554l-2.268 5.747Z" data-name="패스 5897"/><path d="m59.356 52.824 1.511.255a2.5 2.5 0 0 1-.916 1.261 2.7 2.7 0 0 1-1.581.437 2.537 2.537 0 0 1-2.2-.979 3.269 3.269 0 0 1-.574-1.974 3.146 3.146 0 0 1 .753-2.233 2.424 2.424 0 0 1 1.881-.811 2.549 2.549 0 0 1 2.014.847 3.647 3.647 0 0 1 .71 2.59h-3.813a1.607 1.607 0 0 0 .378 1.05 1.135 1.135 0 0 0 .871.379.951.951 0 0 0 .6-.186 1.352 1.352 0 0 0 .37-.635m.09-1.536a1.445 1.445 0 0 0-.355-1 1.019 1.019 0 0 0-.781-.347 1.075 1.075 0 0 0-.82.365 1.43 1.43 0 0 0-.312.983Z" data-name="패스 5898"/><path d="M67.079 54.651h-1.521v-2.936a3.9 3.9 0 0 0-.1-1.2.77.77 0 0 0-.317-.429.841.841 0 0 0-.518-.151 1.214 1.214 0 0 0-.706.224 1.117 1.117 0 0 0-.434.574 5.482 5.482 0 0 0-.113 1.306v2.612h-1.527v-5.743h1.421v.846a2.271 2.271 0 0 1 1.876-.976 2.359 2.359 0 0 1 .929.184 1.541 1.541 0 0 1 .628.468 1.643 1.643 0 0 1 .293.632 3.893 3.893 0 0 1 .093 1.023Z" data-name="패스 5899"/><path d="M71.044 54.648V46.73h3.36a5.558 5.558 0 0 1 1.846.218 1.8 1.8 0 0 1 .924.755 2.267 2.267 0 0 1 .34 1.245 2.131 2.131 0 0 1-.527 1.472 2.587 2.587 0 0 1-1.56.733 3.409 3.409 0 0 1 .85.664 9.024 9.024 0 0 1 .913 1.28l.979 1.551h-1.923l-1.16-1.731a10.266 10.266 0 0 0-.835-1.152 1.207 1.207 0 0 0-.487-.336 2.44 2.44 0 0 0-.8-.086h-.328v3.305Zm1.588-4.575h1.186a6.227 6.227 0 0 0 1.44-.1.77.77 0 0 0 .441-.324 1.062 1.062 0 0 0 .172-.606.93.93 0 0 0-.218-.639 1.072 1.072 0 0 0-.6-.321c-.133-.016-.519-.019-1.175-.019h-1.246Z" data-name="패스 5900"/><path d="M78.322 51.701a3.155 3.155 0 0 1 .369-1.451 2.623 2.623 0 0 1 1.058-1.093 3.205 3.205 0 0 1 1.526-.375 2.865 2.865 0 0 1 2.965 2.99 2.945 2.945 0 0 1-.839 2.161 2.83 2.83 0 0 1-2.111.847 3.206 3.206 0 0 1-1.5-.359 2.485 2.485 0 0 1-1.1-1.042 3.619 3.619 0 0 1-.368-1.678m1.56.088a1.888 1.888 0 0 0 .4 1.3 1.319 1.319 0 0 0 1.011.453 1.259 1.259 0 0 0 .987-.453 1.9 1.9 0 0 0 .4-1.311 1.843 1.843 0 0 0-.4-1.3 1.236 1.236 0 0 0-.987-.453 1.3 1.3 0 0 0-1.011.453 1.873 1.873 0 0 0-.4 1.305" data-name="패스 5901"/><path d="m86.235 50.658-1.371-.241a2.067 2.067 0 0 1 .8-1.229 2.868 2.868 0 0 1 1.674-.41 3.571 3.571 0 0 1 1.518.249 1.53 1.53 0 0 1 .7.6 3.315 3.315 0 0 1 .2 1.367l-.021 1.775a7.3 7.3 0 0 0 .067 1.109 3.308 3.308 0 0 0 .285.774h-1.5c-.042-.1-.089-.253-.151-.453-.032-.091-.043-.148-.055-.175a2.727 2.727 0 0 1-.839.572 2.558 2.558 0 0 1-.952.181 1.918 1.918 0 0 1-1.377-.478 1.6 1.6 0 0 1-.508-1.22 1.636 1.636 0 0 1 .234-.862 1.422 1.422 0 0 1 .652-.585 5.021 5.021 0 0 1 1.2-.356 8.522 8.522 0 0 0 1.468-.369v-.149a.779.779 0 0 0-.211-.629 1.348 1.348 0 0 0-.828-.188 1.109 1.109 0 0 0-.632.161 1.142 1.142 0 0 0-.358.557m2.033 1.242a8.23 8.23 0 0 1-.929.227 2.844 2.844 0 0 0-.823.269.629.629 0 0 0-.292.529.737.737 0 0 0 .237.556.859.859 0 0 0 .606.23 1.3 1.3 0 0 0 .78-.27.948.948 0 0 0 .37-.5 3.448 3.448 0 0 0 .051-.74Z" data-name="패스 5902"/><path d="m90.397 53.009 1.51-.234a1.135 1.135 0 0 0 .394.685 1.4 1.4 0 0 0 .828.223 1.547 1.547 0 0 0 .894-.216.5.5 0 0 0 .206-.4.415.415 0 0 0-.125-.287 1.2 1.2 0 0 0-.491-.2 8.255 8.255 0 0 1-2.337-.737 1.471 1.471 0 0 1-.676-1.288 1.536 1.536 0 0 1 .585-1.254 2.73 2.73 0 0 1 1.827-.521 3.125 3.125 0 0 1 1.74.386 1.967 1.967 0 0 1 .792 1.137l-1.425.259a.926.926 0 0 0-.347-.509 1.3 1.3 0 0 0-.742-.182 1.58 1.58 0 0 0-.843.168.358.358 0 0 0-.183.316.346.346 0 0 0 .148.269 6.046 6.046 0 0 0 1.412.429 4.424 4.424 0 0 1 1.706.672 1.437 1.437 0 0 1 .468 1.129 1.717 1.717 0 0 1-.656 1.354 2.888 2.888 0 0 1-1.955.568 3.147 3.147 0 0 1-1.846-.476 2.079 2.079 0 0 1-.885-1.292" data-name="패스 5903"/><path d="M99.368 48.908v1.209h-1.043v2.32a4.757 4.757 0 0 0 .035.814.381.381 0 0 0 .13.2.476.476 0 0 0 .257.075 1.951 1.951 0 0 0 .617-.143l.132 1.175a3.1 3.1 0 0 1-1.2.226 1.9 1.9 0 0 1-.737-.132 1.112 1.112 0 0 1-.488-.355 1.686 1.686 0 0 1-.218-.592 8.353 8.353 0 0 1-.048-1.077v-2.5h-.69v-1.22h.69v-1.132l1.522-.89v2.022Z" data-name="패스 5904"/><path d="m103.415 52.824 1.505.255a2.436 2.436 0 0 1-.92 1.261 2.658 2.658 0 0 1-1.569.437 2.555 2.555 0 0 1-2.211-.979 3.32 3.32 0 0 1-.574-1.974 3.132 3.132 0 0 1 .748-2.233 2.441 2.441 0 0 1 1.877-.811 2.578 2.578 0 0 1 2.028.847 3.734 3.734 0 0 1 .715 2.59h-3.816a1.562 1.562 0 0 0 .363 1.05 1.183 1.183 0 0 0 .885.379.963.963 0 0 0 .6-.186 1.384 1.384 0 0 0 .371-.635m.081-1.536a1.452 1.452 0 0 0-.335-1 1.061 1.061 0 0 0-.792-.347 1.091 1.091 0 0 0-.828.365 1.357 1.357 0 0 0-.3.983Z" data-name="패스 5905"/><path d="M111.171 54.648h-1.413v-.842a2.338 2.338 0 0 1-.827.725 2.1 2.1 0 0 1-.956.242 2.173 2.173 0 0 1-1.7-.8 3.887 3.887 0 0 1-.016-4.435 2.249 2.249 0 0 1 1.74-.762 2.157 2.157 0 0 1 1.654.8v-2.845h1.522Zm-4.046-3a2.63 2.63 0 0 0 .249 1.327 1.157 1.157 0 0 0 1.03.6 1.14 1.14 0 0 0 .89-.443 2.127 2.127 0 0 0 .355-1.336 2.352 2.352 0 0 0-.34-1.423 1.177 1.177 0 0 0-1.833 0 1.941 1.941 0 0 0-.351 1.276" data-name="패스 5906"/><path d="m120.158 51.737 1.549.487a3.567 3.567 0 0 1-1.194 1.933 3.747 3.747 0 0 1-4.693-.451 4.133 4.133 0 0 1-1.019-2.949 4.313 4.313 0 0 1 1.026-3.067 3.515 3.515 0 0 1 2.681-1.1 3.317 3.317 0 0 1 2.369.864 3.353 3.353 0 0 1 .807 1.452l-1.588.392a1.639 1.639 0 0 0-1.663-1.336 1.829 1.829 0 0 0-1.431.633 3.04 3.04 0 0 0-.55 2.04 3.369 3.369 0 0 0 .531 2.139 1.779 1.779 0 0 0 1.42.648 1.62 1.62 0 0 0 1.1-.414 2.4 2.4 0 0 0 .66-1.272" data-name="패스 5907"/><path d="M124.244 46.73v2.91a2.242 2.242 0 0 1 1.756-.862 2.179 2.179 0 0 1 .944.2 1.5 1.5 0 0 1 .632.5 1.825 1.825 0 0 1 .293.673 5.006 5.006 0 0 1 .09 1.136v3.361h-1.534v-3.029a4.687 4.687 0 0 0-.077-1.14.755.755 0 0 0-.313-.4.974.974 0 0 0-.546-.145 1.305 1.305 0 0 0-.679.189 1.056 1.056 0 0 0-.422.552 2.916 2.916 0 0 0-.144 1.095v2.878h-1.526V46.73Z" data-name="패스 5908"/><path d="M129.155 46.731h1.514v1.408h-1.514Zm0 2.177h1.514v5.74h-1.514Z" data-name="패스 5909"/><path d="m136.897 50.614-1.5.261a1.114 1.114 0 0 0-.347-.676 1.046 1.046 0 0 0-.7-.23 1.119 1.119 0 0 0-.9.4 2.007 2.007 0 0 0-.343 1.305 2.372 2.372 0 0 0 .343 1.449 1.168 1.168 0 0 0 .929.414 1.053 1.053 0 0 0 .7-.238 1.527 1.527 0 0 0 .39-.857l1.49.261a2.678 2.678 0 0 1-.893 1.554 2.809 2.809 0 0 1-1.767.515 2.629 2.629 0 0 1-2.011-.794 3.636 3.636 0 0 1 .016-4.411 2.655 2.655 0 0 1 2.021-.792 2.691 2.691 0 0 1 1.663.458 2.424 2.424 0 0 1 .9 1.377" data-name="패스 5910"/><path d="M137.662 54.648V46.73h1.506v4.2l1.783-2.025h1.865L140.87 51l2.091 3.648h-1.636l-1.432-2.581-.722.735v1.846Z" data-name="패스 5911"/><path d="m146.855 52.824 1.514.255a2.516 2.516 0 0 1-.925 1.261 2.683 2.683 0 0 1-1.577.437 2.56 2.56 0 0 1-2.212-.979 3.215 3.215 0 0 1-.563-1.974 3.18 3.18 0 0 1 .742-2.233 2.453 2.453 0 0 1 1.881-.811 2.553 2.553 0 0 1 2.021.847 3.674 3.674 0 0 1 .714 2.59h-3.815a1.607 1.607 0 0 0 .366 1.05 1.173 1.173 0 0 0 .883.379.959.959 0 0 0 .6-.186 1.323 1.323 0 0 0 .371-.635m.09-1.536a1.515 1.515 0 0 0-.343-1 1.054 1.054 0 0 0-.792-.347 1.1 1.1 0 0 0-.83.365 1.42 1.42 0 0 0-.3.983Z" data-name="패스 5912"/><path d="M154.562 54.651h-1.506v-2.936a4.3 4.3 0 0 0-.105-1.2.817.817 0 0 0-.313-.429.889.889 0 0 0-.523-.151 1.15 1.15 0 0 0-.7.224 1 1 0 0 0-.44.574 4.74 4.74 0 0 0-.113 1.306v2.612h-1.522v-5.743h1.412v.846a2.3 2.3 0 0 1 1.885-.976 2.265 2.265 0 0 1 .921.184 1.559 1.559 0 0 1 .633.468 2.008 2.008 0 0 1 .3.632 5.315 5.315 0 0 1 .07 1.023Z" data-name="패스 5913"/><path d="M33.323 27.792a19.605 19.605 0 0 1 .543-4.913 13.578 13.578 0 0 1 1.431-3.646 10.085 10.085 0 0 1 2.049-2.566 13.24 13.24 0 0 1 2.349-1.676 13.466 13.466 0 0 1 12.81 0 13.486 13.486 0 0 1 2.349 1.676 10.259 10.259 0 0 1 2.056 2.566 15.046 15.046 0 0 1 1.459 3.646 19.044 19.044 0 0 1 .562 4.913 19.047 19.047 0 0 1-.562 4.921 14.651 14.651 0 0 1-1.459 3.623 10.2 10.2 0 0 1-2.053 2.513 14.143 14.143 0 0 1-2.349 1.647 14.271 14.271 0 0 1-12.81 0 13.872 13.872 0 0 1-2.349-1.647 10.02 10.02 0 0 1-2.049-2.513 13.244 13.244 0 0 1-1.431-3.622 19.608 19.608 0 0 1-.543-4.921m12.8-8.044a5.725 5.725 0 0 0-3.215.808 5.533 5.533 0 0 0-1.861 2.024 8.1 8.1 0 0 0-.863 2.622 15.271 15.271 0 0 0 0 5.19 8.026 8.026 0 0 0 .863 2.618 5.566 5.566 0 0 0 1.86 2.03 5.747 5.747 0 0 0 3.215.809 5.726 5.726 0 0 0 3.212-.809 5.558 5.558 0 0 0 1.873-2.03 8.21 8.21 0 0 0 .866-2.618 17.586 17.586 0 0 0 .215-2.6 17.523 17.523 0 0 0-.215-2.589 8.286 8.286 0 0 0-.866-2.623 5.525 5.525 0 0 0-1.869-2.025 5.7 5.7 0 0 0-3.212-.808" data-name="패스 5914"/><path d="M60.414 27.792a19.608 19.608 0 0 1 .542-4.913 14.121 14.121 0 0 1 1.425-3.646 10.194 10.194 0 0 1 2.052-2.566 13.425 13.425 0 0 1 2.357-1.676 13.452 13.452 0 0 1 12.8 0 13.4 13.4 0 0 1 2.353 1.676 10.329 10.329 0 0 1 2.056 2.566 15.121 15.121 0 0 1 1.456 3.646 19.155 19.155 0 0 1 .566 4.913 19.157 19.157 0 0 1-.566 4.921 14.724 14.724 0 0 1-1.456 3.622 10.266 10.266 0 0 1-2.056 2.513 14.052 14.052 0 0 1-2.353 1.647 14.255 14.255 0 0 1-12.8 0 14.075 14.075 0 0 1-2.357-1.647 10.13 10.13 0 0 1-2.052-2.513 13.765 13.765 0 0 1-1.425-3.622 19.611 19.611 0 0 1-.542-4.921m12.8-8.044a5.733 5.733 0 0 0-3.215.808 5.536 5.536 0 0 0-1.861 2.025 8.316 8.316 0 0 0-.871 2.622 18.178 18.178 0 0 0-.215 2.589 18.24 18.24 0 0 0 .215 2.6 8.24 8.24 0 0 0 .871 2.618 5.568 5.568 0 0 0 1.863 2.031 6.793 6.793 0 0 0 6.43 0 5.5 5.5 0 0 0 1.861-2.031 8.121 8.121 0 0 0 .867-2.618 16.141 16.141 0 0 0 0-5.19 8.2 8.2 0 0 0-.867-2.622 5.465 5.465 0 0 0-1.861-2.025 5.73 5.73 0 0 0-3.214-.808" data-name="패스 5915"/><path d="M93.983 17.36c.027-.035.05-.074.078-.109a7.619 7.619 0 0 1 1.132-1.264 11.256 11.256 0 0 1 2.758-1.806 10.979 10.979 0 0 1 3.243-.81 12.358 12.358 0 0 1 5.939 1.622 10.883 10.883 0 0 1 2.193 1.676 10.573 10.573 0 0 1 1.888 2.566 14.949 14.949 0 0 1 1.354 3.646 20.983 20.983 0 0 1 .52 4.913 19.014 19.014 0 0 1-.569 4.92 14.679 14.679 0 0 1-1.468 3.623 10.011 10.011 0 0 1-2.053 2.513 13.313 13.313 0 0 1-2.353 1.647 14.092 14.092 0 0 1-6.376 1.518 13.749 13.749 0 0 1-6.317-1.518 12.816 12.816 0 0 1-2.322-1.647 10.051 10.051 0 0 1-2.016-2.538 14.524 14.524 0 0 1-1.443-3.657 20.319 20.319 0 0 1-.535-4.913V4.995h6.431v12.342s-.492.624-.078.023m6.286 18.492a5.758 5.758 0 0 0 3.224-.809 5.669 5.669 0 0 0 1.865-2.031 8.21 8.21 0 0 0 .862-2.619 15.861 15.861 0 0 0 0-5.19 8.282 8.282 0 0 0-.862-2.621 5.638 5.638 0 0 0-1.865-2.026 6.823 6.823 0 0 0-6.438 0 5.857 5.857 0 0 0-1.885 2.026 7.788 7.788 0 0 0-.894 2.621 15.8 15.8 0 0 0 0 5.19 7.722 7.722 0 0 0 .894 2.619 5.89 5.89 0 0 0 1.885 2.031 5.772 5.772 0 0 0 3.214.809" data-name="패스 5916"/><path d="M130.994 13.37c.105 0 .5.02 1.164.053a10.151 10.151 0 0 1 2.349.464 13.894 13.894 0 0 1 2.864 1.27 9.931 9.931 0 0 1 2.805 2.484 13.358 13.358 0 0 1 2.131 4.079 19.035 19.035 0 0 1 .839 6.076v13.67h-6.587V27.792a13.814 13.814 0 0 0-.223-2.43 6.826 6.826 0 0 0-.812-2.271 4.993 4.993 0 0 0-1.669-1.7 6.435 6.435 0 0 0-5.733 0 4.982 4.982 0 0 0-1.674 1.7 6.838 6.838 0 0 0-.807 2.271 14.16 14.16 0 0 0-.218 2.43v13.674h-6.595V27.792a18.9 18.9 0 0 1 .84-6.076 13.442 13.442 0 0 1 2.129-4.079 10.021 10.021 0 0 1 2.814-2.48 13.743 13.743 0 0 1 2.867-1.27 10.039 10.039 0 0 1 2.322-.464 36.223 36.223 0 0 1 1.19-.053" data-name="패스 5917"/><path d="M170.892 24.284c.07.537.132 1.094.179 1.668a17.368 17.368 0 0 1 .09 1.84v.979H152.24c.074.613.172 1.233.277 1.863a8.761 8.761 0 0 0 .538 1.867 6.756 6.756 0 0 0 1.838 2.479 6.049 6.049 0 0 0 6.914 0 6.776 6.776 0 0 0 1.842-2.479h7.023a11.976 11.976 0 0 1-1.225 3.292 12.2 12.2 0 0 1-1.721 2.427 9.715 9.715 0 0 1-2.029 1.709 15.069 15.069 0 0 1-2.1 1.106 14.361 14.361 0 0 1-5.244.978 14.19 14.19 0 0 1-6.427-1.518 13.641 13.641 0 0 1-2.356-1.647 9.9 9.9 0 0 1-2.049-2.513 13.73 13.73 0 0 1-1.432-3.623 19.949 19.949 0 0 1-.542-4.92 19.96 19.96 0 0 1 .542-4.913 14.091 14.091 0 0 1 1.432-3.646 9.965 9.965 0 0 1 2.049-2.566 12.938 12.938 0 0 1 2.356-1.676 14.209 14.209 0 0 1 6.427-1.622 15.212 15.212 0 0 1 5.571 1.239 13.794 13.794 0 0 1 2.186 1.272 10.854 10.854 0 0 1 2.056 1.945 13.237 13.237 0 0 1 1.666 2.753 14.106 14.106 0 0 1 1.062 3.705m-6.817 0a13.879 13.879 0 0 0-.671-1.731 5.491 5.491 0 0 0-1.108-1.565 5.1 5.1 0 0 0-1.679-1.106 6.554 6.554 0 0 0-4.541 0 5.019 5.019 0 0 0-1.666 1.106 5.753 5.753 0 0 0-1.139 1.565 8.05 8.05 0 0 0-.648 1.731Z" data-name="패스 5918"/><path d="M31.275 22.77h-14.6v6.057h8.311c0 2.823-1.506 6.807-7.8 6.807s-10.7-1.91-10.7-12.4c0-10.6 4.484-12.467 10.945-12.467a6.767 6.767 0 0 1 7.148 5.715h6.532c-.538-4.747-3.274-12.047-14.434-12.047C2.63 4.439 0 13.121 0 23.174c0 6.713 1.273 18.84 16.678 18.84s14.6-13.4 14.6-13.4Z" data-name="패스 5919"/><path fill-rule="evenodd" d="M127.364 0c-6.278.47-15.741 4.7-12.54 12.631a17.065 17.065 0 0 0 6.185-4.043l1.327-1.456A45.305 45.305 0 0 0 125.254 3c.542-.656-3.446 9.376-9.6 11.281.2 1.268 6.856 2 9.474-3.462A23.915 23.915 0 0 0 127.364 0" data-name="패스 5920"/><path fill-rule="evenodd" d="M112.139 8.948a11.979 11.979 0 0 0-4.932-2.5c-.589 3.1.239 8.273 4.483 7.745a8.359 8.359 0 0 0-1.166-3.531l-.522-.862a22.562 22.562 0 0 0-1.643-1.925c-.222-.369 4.136 2.894 4.238 6.119.655.08 1.88-3.071-.457-5.045" data-name="패스 5921"/></g></g></g></svg>