<svg xmlns="http://www.w3.org/2000/svg" width="226.62" height="100.932" data-name="그룹 470711"><path fill="rgba(255,255,255,0)" d="M0 2.023h226.62v98.908H0z" data-name="사각형 2582"/><g data-name="그룹 3303"><g data-name="그룹 3287"><g data-name="그룹 3264" style="isolation:isolate"><g data-name="그룹 3259"><g data-name="그룹 3258"><g data-name="그룹 3257"><path fill="#383838" d="M56.922 64.827c-1.35 3.044-1.233 4.507.464 5.821.035.019 2.765 1.99 3.813 2.789.76.58 1.823.652 2.045-.393 2.963-14.048 13.861-35.354 26.487-38.513.518-.13.488-.792-.173-.77-5.626.188-11.719 2.857-16.3 6.824-5.95 5.156-11.063 14.073-11.063 14.073a20.214 20.214 0 0 0-4.951-5.439s5.209-7.956 6.71-9.852a14.287 14.287 0 0 1 6.279-4.889c.555-.206.361-.777-.144-.726a22.257 22.257 0 0 0-6.615 1.83c-2.208 1.1-5.812 2.677-11.334 10.707a23.543 23.543 0 0 0-6.649-1.736c-.708-2.65-3.442-3.789-7.948-3.789a27.037 27.037 0 0 0-11.763 2.731c-.525-2.079.545-5.566 6.838-8.541 2.9-1.368 11.734-5.909 29.62-5.909a93.838 93.838 0 0 1 16.3 1.63c.635.129.745-.565.268-.723a87.531 87.531 0 0 0-23.21-3.284c-12.337 0-24.559 3.434-29.311 10.2-1.114 1.586-2.58 4.481-1.67 7.232C14.468 49.8 9.046 61 13.137 67.882c1.928 3.25 5.394 4.856 10.167 4.856 15.693 0 24.967-10.135 32.163-20.857a27.14 27.14 0 0 1 4.214 7.276s-1.403 2.627-2.759 5.67Zm-17.576-22.5c1.82 0 4.422.355 4.988 2.156a26.293 26.293 0 0 0-17.328 5.564c-4.023 3.289-6.055 6.663-6.605 9.349-.64 3.115.659 5.834 4.877 5.829 5.419 0 12.952-5.2 17.6-12.042a14.088 14.088 0 0 0 2.763-7.463 12.5 12.5 0 0 1 5.392 2.072l-3.856 5.109c-8.073 10.619-14.369 16.9-25.272 17.792-9.111.747-10.782-8.764-2.956-17.751 5.672-6.518 14.068-10.616 20.397-10.616ZM21.554 61.481c.564-3.5 7.079-9.211 9.513-10.908 3.75-2.612 8.917-4.9 13.374-4.969-.128 2.076-2.417 5.933-8.094 10.993-6.859 6.115-10.667 7.352-12.6 7.34a2.032 2.032 0 0 1-2.193-2.457Z" data-name="패스 2429"/></g></g></g><g data-name="그룹 3263"><g data-name="그룹 3262"><g data-name="그룹 3261"><g fill="#383838" data-name="그룹 3260"><path d="M107.617 42.81h3.24v13.703h-3.24z" data-name="사각형 2550"/><path d="M103.802 50.364a4.463 4.463 0 0 0-1.6-3.615l-.168-.13h2.612v-2.111h-5.568v-2.27h-3.423v2.27h-5.57v2.111h2.6l-.15.13a4.439 4.439 0 0 0-1.6 3.615c0 3.347 2.576 5.586 6.422 5.586s6.445-2.239 6.445-5.586Zm-9.568 0c0-2.067 1.258-3.471 3.123-3.471 1.885 0 3.136 1.4 3.136 3.471 0 2.088-1.252 3.471-3.136 3.471-1.866 0-3.123-1.383-3.123-3.471Z" data-name="패스 2430"/><path d="M97.349 64.042h13.507v-6.249H93.899v2.122h13.66v2.07H94.047v6.7h17.1v-2.122H97.349Z" data-name="패스 2431"/><path d="m126.345 52.193.055.122c2.014 3.56 6.954 5.55 10.625 6.166v-2.228c-4.358-1.023-8.971-4.607-8.971-9.278v-2.757h-3.406v2.757c0 4.671-4.624 8.254-8.965 9.278v2.229c3.745-.64 8.729-2.625 10.6-6.166Z" data-name="패스 2432"/><path d="M114.83 63.592h23.045v2.252H114.83z" data-name="사각형 2551"/><path d="M159.73 42.81h3.109v25.87h-3.109z" data-name="사각형 2552"/><path d="M154.494 68.68h3.1V42.81h-3.1v8.112h-3.112v2.108h3.112Z" data-name="패스 2433"/><path d="M144.458 53.03h5.326v-2.051h-5.326v-4.638h6.212v-2.122h-9.467v16.647h10.6v-2.133h-7.341Z" data-name="패스 2434"/><path d="M184.721 42.81h3.252v25.87h-3.252z" data-name="사각형 2553"/><path d="M174.319 44.218c-4.465 0-7.572 3.461-7.572 8.082s3.107 8.081 7.572 8.081c4.442 0 7.558-3.457 7.558-8.081s-3.116-8.082-7.558-8.082Zm0 13.935c-2.547 0-4.174-2.443-4.174-5.853s1.627-5.851 4.174-5.851 4.17 2.438 4.17 5.851-1.637 5.853-4.17 5.853Z" data-name="패스 2435"/><path d="M191.388 63.592h23.043v2.252h-23.043z" data-name="사각형 2554"/><path d="M197.753 52.429h13.57v-2.058h-13.57v-4.042h13.855v-2.11h-17.111v14.874h17.39v-2.117h-14.134Z" data-name="패스 2436"/></g></g></g></g></g></g></g></svg>