<svg xmlns="http://www.w3.org/2000/svg" width="226.62" height="100.024" data-name="그룹 470708"><path fill="rgba(255,255,255,0)" d="M0 0h226.62v100.024H0z" data-name="사각형 2583"/><g data-name="그룹 7181"><g data-name="그룹 3291"><path fill="#383838" d="M96.969 42.61h-9.086v.236a8.83 8.83 0 0 1-.761 3.121l-8.391 21.424-9.506-22.3-.144-.354a4.819 4.819 0 0 1-.564-1.888v-.2l-.17-.039h-9.873v.446l.118.066c1.875.682 2.15 3.173 2.15 4.6v21.582c0 2.5-.262 5.3-2.295 7.08l-.065.052v.42h8.759v-.446l-.105-.066c-1.927-.839-2.085-3.016-2.085-5.074v-1.246l.013-21.241 9.44 22.395c1.285 2.976 2.045 4.366 4.589 6.294l.2.157 11.276-28.846-.013 23.863c0 1.6-.249 3.147-1.98 3.7l-.131.039v.472h9.834v-.433l-.065-.065a5.665 5.665 0 0 1-2.557-5.1V45.967c0-.564.118-2.452 1.469-2.845l.131-.039v-.472" data-name="패스 2513"/><path fill="#383838" d="M104.088 61.08a17.124 17.124 0 0 1 29.514-11.787 19.182 19.182 0 1 0-9.912 28.715 17.112 17.112 0 0 1-19.6-16.914" data-name="패스 2514"/><path fill="#383838" d="M122.405 46.072a14.947 14.947 0 0 0-14.213 7.211 13.033 13.033 0 1 1 5.821 20.926 14.974 14.974 0 1 0 8.379-28.138" data-name="패스 2515"/><path fill="#383838" d="M154.713 71.011a8.346 8.346 0 0 1-6.451 1.77l-4.327-.393V60.01l3.435-.2a10 10 0 0 1 7.316 2.242 5.9 5.9 0 0 1 1.862 4.471 5.742 5.742 0 0 1-1.835 4.484m-10.778-24.519c.3-.013 3.292-.341 3.292-.341a6.151 6.151 0 0 1 4.668 1.442 4.526 4.526 0 0 1 1.52 3.488c0 4.93-6.634 5.166-7.958 5.166h-1.521Zm10.621 10.411c3.239-1.534 4.825-3.711 4.825-6.648 0-4.786-4.091-7.644-10.935-7.644h-12.39v.446l.13.066c2.23.826 2.177 3.881 2.151 6.123v20.864c.026 2.281.052 5.4-2.163 6.241l-.118.053v.459h9.545c3.632.013 7.369.013 10.752-1.613a10.528 10.528 0 0 0 6.28-9.178c0-4.471-3.094-7.933-8.077-9.165m19.156-14.292h-9.965v.446l.131.066c2.229.826 2.176 3.907 2.137 6.163v20.861c.026 2.268.066 5.389-2.15 6.189l-.131.052v.459h10.162v-.461l-.131-.052c-2.2-.839-2.164-3.933-2.151-6.189V49.363c-.013-2.281-.053-5.4 2.163-6.254l.118-.053v-.446m2.085 8.326c0 5.979 5.3 8.339 9.978 10.45 3.973 1.77 7.736 3.461 7.736 7.054 0 3.37-4.169 5.179-7.173 5.179a17.612 17.612 0 0 1-11.17-4.235l-.42-.367 1.639 7.081.092.013a26.428 26.428 0 0 0 9.283 1.573c7.709 0 13.99-4.864 13.99-10.843 0-5.245-5.3-7.657-9.965-9.781-3.985-1.836-7.762-3.54-7.762-6.687 0-3.343 3.488-4.51 6.477-4.51a11.6 11.6 0 0 1 7.946 3.173l.3.328v-6.4l-.118-.039a26.009 26.009 0 0 0-7.736-1.141c-6.031 0-13.1 2.386-13.1 9.152" data-name="패스 2516"/><g data-name="그룹 3289"><path fill="#383838" d="M39.015 25.893h-7.032v-5.848h-3.3v15.026h3.3v-6.228h7.028v6.228h3.3V20.032h-3.3m75.072 2.937h6.162v4.366h-7.018v-3.511a.993.993 0 0 1 .131-.656c.131-.21.393-.2.708-.2m-3.409-2.1a3.529 3.529 0 0 0-.734 2.36v11.84h3.3v-4.8h7v4.8h3.3V20.019H113.24a3.406 3.406 0 0 0-2.57.865m-23.326-.852H77.039v15.039h3.291v-12.1h6.189c.315 0 .564 0 .721.184a1.414 1.414 0 0 1 .131.669v11.25h3.278V23.231a3.266 3.266 0 0 0-.721-2.347 3.393 3.393 0 0 0-2.583-.852M70.811 31.269a1.1 1.1 0 0 1-.131.669c-.144.21-.393.184-.708.2h-6.176V20.019h-3.313v15.052h10.3a2.854 2.854 0 0 0 3.33-3.212V20.032h-3.3m33.105 11.237c-.013.184.013.5-.131.669-.144.21-.393.184-.708.2h-6.2v-9.169h6.2c.3 0 .564-.013.708.184a1.249 1.249 0 0 1 .131.669Zm3.278-8.051a3.314 3.314 0 0 0-.721-2.334 3.406 3.406 0 0 0-2.6-.852H93.583v15.039h10.3a2.84 2.84 0 0 0 3.33-3.212m-55.8-5.245-4.02-6.582h-3.92l6.162 9.492v5.546h3.54v-5.546l6.136-9.493h-3.906m71.458 15.04h3.5V20.032h-3.5Z" data-name="패스 2517"/></g></g></g></svg>