<svg xmlns="http://www.w3.org/2000/svg" width="227.02" height="100.245" data-name="그룹 470703"><defs><clipPath id="a"><path fill="#fff" d="M0 0h226.62v37.218H0z" data-name="사각형 354088"/></clipPath></defs><path fill="rgba(255,255,255,0)" d="M.149 0H227.02v100.245H.149z" data-name="사각형 2590"/><g fill="#fff" clip-path="url(#a)" data-name="그룹 7273" transform="translate(0 31.265)"><path d="m51.426 19.1-.457-.287c-1.54-1.541-3.691-2.208-6.553-2.039a12.373 12.373 0 0 0-5.735 1.972v-.066c0-.748.085-1.557.161-2.344a20.646 20.646 0 0 0 .181-2.39 5.471 5.471 0 0 0-.371-2.166.408.408 0 0 0-.409-.265 6.368 6.368 0 0 0-2.644.863l-.19.442a17.23 17.23 0 0 1-.4 3.523c.008-.008-.1.29-.1.29a42.472 42.472 0 0 0-.029 8.979c.029.258.524.638.9.78a5.758 5.758 0 0 0 2.492-.48l.286-.042a.445.445 0 0 0 .371-.506l.008-.736c.553-2.222 2.759-4.872 5.375-5.265a3.722 3.722 0 0 1 3.588 1.15 4.916 4.916 0 0 1-.58 3.612 7.488 7.488 0 0 1-4.089 3.225 15.663 15.663 0 0 1-6.249.874c-.1-.066-2.3-1.555-2.3-1.555a33.119 33.119 0 0 0-6.562-3.894 8.136 8.136 0 0 1-1.485-1.065l-.228-.19c-1.263-1.006-3.68-2.615-5.612-3.9 0 0-.865-.586-1.027-.7v-.22c.047-.059 1.266-.787 1.266-.787a13.208 13.208 0 0 0 2.653-1.733c-.038.042.231-.135.231-.135.017 0 4.21-2.387 4.21-2.387 4.045-2.216 8.64-4.74 11.044-7.231 0-.007.113-.387.113-.387l.058-.337a2.41 2.41 0 0 0 .041-1.414.458.458 0 0 0-.334-.317c-1.883-.191-4.3.937-6.515 3.006a5.518 5.518 0 0 1-1.361.936l-.331.19c-2.427 1.38-7.915 4.784-10.786 6.615a94.433 94.433 0 0 1 1.456-11.135l-.086-.432L21.132.6 20.9.2l-.051-.014A1.831 1.831 0 0 0 19.458.1l-.57.214-.77.274a.456.456 0 0 0-.318.265 46.027 46.027 0 0 0-2.776 13.12 65.32 65.32 0 0 0-6.525-3.6l-.028-.024-.153-.029a4.5 4.5 0 0 1-1.512-.709C6.75 9.583 5.76 8.94 5.76 8.94L4.184 7.924c.01.009-.426-.1-.426-.1a5 5 0 0 0-2.389 1.6.489.489 0 0 0-.077.253 1.572 1.572 0 0 0 .077.375l.076.329.076.194a22.555 22.555 0 0 0 4.565 3.1l2.2 1.16 3.348 1.825c0 .018.57.456.57.456l.4.224a.581.581 0 0 0 .067.047c-.895.6-6.1 4.068-6.1 4.068l-3.205 2.128a19.2 19.2 0 0 1-1.836.891 2.594 2.594 0 0 0-1.445 1.183L0 25.842l.085.124.246.186c-.009 0 .334.212.334.212l.351.244.334.052a8.679 8.679 0 0 0 2.957-.985c1.426-.637 5.316-2.977 6.981-3.984l.7-.419a1.6 1.6 0 0 0 .912-.443 8.983 8.983 0 0 1 1.494-.907c.02-.005.276-.147.515-.278v.191a67.687 67.687 0 0 0 .913 11.631l.008.048.059.114a13.964 13.964 0 0 1 .863 2.673l.629 2.121c.02.029.181.2.181.2a4.2 4.2 0 0 0 2.2.584l.19-.018.115-.266a5.236 5.236 0 0 0 .085-.97c0-.389-.037-.814-.067-1.342l-.047-.763c-.238-3.552-.466-8.678-.466-12.092v-.266c.611.38 3.243 2.04 3.243 2.04 4.5 2.915 11.292 7.314 15.381 8.48a.614.614 0 0 0 .6-.136c0-.005.626-.407.626-.407l.114-.041a1.133 1.133 0 0 0 .427-.942c3.463-.172 8.276-1.507 10.854-4.751a6.718 6.718 0 0 0 1.454-4.108 3.45 3.45 0 0 0-.846-2.525" data-name="패스 5943"/><path d="M161.859 15.497h-8.72V8.318h8.72Zm3.154-9.928h-15.035v12.7h15.035Z" data-name="패스 5944"/><path d="M135.341 16.084v3.965h9.3v10.373h-3.168v-7.633h-18.666v-2.74h9.368v-3.965h-11.319v-2.739h20.469V7.861h-18.176V5.132h21.361v8.193h2.273v2.759Z" data-name="패스 5945"/><path d="M172.797 30.326h-19.955v-9.334h3.177v6.578h16.778Z" data-name="패스 5946"/><path d="M169.393 4.959h3.166v16.669h-3.166z" data-name="사각형 354086"/><path d="M64.143 5.17h4.033v11.3l13.561-11.3h5.726L73.11 16.579l15.532 13.839h-5.707l-14.76-13.53v13.53h-4.032Z" data-name="패스 5947"/><path d="M91.456 5.222h12.414c5.905 0 9 1.964 9 6.254a5.765 5.765 0 0 1-4.966 5.706v.109c4.063.481 5.992 3.15 5.992 6.149 0 3.772-2.767 7.033-9.624 7.033H91.456Zm4.022 10.639h8.2c3.035 0 5.288-1.158 5.288-3.848 0-2.344-1.114-3.92-5.756-3.92h-7.73Zm0 11.746h7.932c4.938 0 6.25-1.93 6.25-4.378 0-2.9-2.007-4.5-6.45-4.5h-7.73Z" data-name="패스 5948"/><path d="M175.82 5.615v2.76h11.312v3.8H175.82V14.9h11.312v7.286h3.2V5.615Z" data-name="패스 5949"/><path d="M202.364 25.985h24.257V28.7h-24.257z" data-name="사각형 354087"/><path d="M208.092 8.345h15.912V5.616h-19.042v14.618h19.042V17.51h-15.912Z" data-name="패스 5950"/><path d="M194.194 30.412h3.188V14.158h3.234V11.4h-3.234V5.069h-3.188Z" data-name="패스 5951"/></g></svg>