<svg xmlns="http://www.w3.org/2000/svg" width="226.093" height="100.421"><defs><clipPath id="a"><path fill="#383838" d="M0 0h186.093v50.421H0z" data-name="사각형 354091"/></clipPath></defs><g data-name="그룹 470702"><path fill="rgba(255,255,255,0)" d="M0 0h226.093v100.421H0z" data-name="사각형 2590"/><g fill="#383838" clip-path="url(#a)" data-name="그룹 7279" transform="translate(20 25)"><path d="M25.208 50.421A25.214 25.214 0 0 1 7.383 7.381a25.21 25.21 0 0 1 35.652 35.654 25.045 25.045 0 0 1-17.827 7.386Zm0-46.388a21.175 21.175 0 1 0 0 42.351 21.181 21.181 0 0 0 21.18-21.176v-1.01H31.259v2.021h13.082a19.16 19.16 0 1 1-19.133-20.17h1.009V4.033Zm-1 10.082v22.183h7.056v-2.013h-5.047v-20.17Zm-7.063 0a3.027 3.027 0 1 0 3.026 3.028 3.031 3.031 0 0 0-3.031-3.028Z" data-name="빼기 2"/><path d="M71.057 10.083h-8.03v30.256h21.862v-6.6H71.057Zm30.765 18.513h6.121s.062 6.729-6.261 6.729a5.733 5.733 0 0 1-4.136-1.678c-1.718-1.715-2.622-4.6-2.622-8.355 0-6.2 2.461-9.9 6.591-9.9a4.9 4.9 0 0 1 5.018 3.979h8.516c-.444-3.491-1.406-5.3-3.741-7.158a15.243 15.243 0 0 0-9.586-2.922c-4.57 0-8.39 1.4-11.048 4.057-2.78 2.772-4.241 6.864-4.241 11.828 0 5.293 1.557 9.763 4.375 12.581a11.745 11.745 0 0 0 8.525 3.382c7.4 0 9.111-4.444 9.111-4.444v3.644h6.687V23.25h-13.309Zm75.8-18.514V1.615h-6.828v8.468h-8.469v6.828h8.469v8.468h6.828v-8.468h8.469v-6.828Zm-29.017 17.5c0 4.209-.9 7.011-5.256 7.011-3.469 0-5.084-2.093-5.084-6.591V10.083h-8.016v18.512c0 8.064 4.68 12.511 13.185 12.511 8.631 0 13.184-4.353 13.184-12.593v-18.43h-8.013Z" data-name="패스 5975"/></g></g></svg>