<svg xmlns="http://www.w3.org/2000/svg" width="175.128" height="71.749"><g data-name="그룹 470699"><path fill="rgba(255,255,255,0)" d="M0 0h175.128v71.749H0z" data-name="사각형 2584"/><g data-name="그룹 3304"><g data-name="그룹 3292"><g fill="#fff" data-name="그룹 3267" style="isolation:isolate"><g data-name="그룹 3265"><path d="M86.629 18.06c3.06 4.466 4.394 5.132 4.394 5.132s-1.334.662-4.394 5.127a9.625 9.625 0 0 1-8.027 4.471c-5.451 0-9.2-4.031-9.2-9.6s3.75-9.6 9.2-9.6a9.637 9.637 0 0 1 8.027 4.47Z" data-name="패스 2437"/><path d="M99.81 12.93c-6.119 8.932-8.787 10.263-8.787 10.263s2.668 1.33 8.787 10.261c3.743 5.454 9.334 8.932 16.063 8.932 10.9 0 18.407-8.049 18.407-19.193S126.774 4 115.873 4c-6.729 0-12.32 3.477-16.063 8.93Z" data-name="패스 2438"/></g><g data-name="그룹 3266"><path d="M42.848 39.184h6.74v20.561h13.766v5h-16.16a4.345 4.345 0 0 1-4.345-4.344Z" data-name="패스 2439"/><path d="M84.285 39.184v9.97H73.709v-9.97h-6.738v25.564h6.738V52.575a4.338 4.338 0 0 0 3.351 1.578h7.226v10.591h6.739v-25.56Z" data-name="패스 2440"/></g></g></g></g></g></svg>