<svg xmlns="http://www.w3.org/2000/svg" width="150.001" height="68" viewBox="0 0 150.001 68">
    <g data-name="그룹 472081">
        <path data-name="패스 854754" d="M3.015-10.32h7.53v-19.695h-7.53zm11.457 0H22v-7.057a14.2 14.2 0 0 0-.886-5.433h.236a17.289 17.289 0 0 0 2.75 4.783l6.5 7.707h8.268v-19.695h-7.53v6.289a17.216 17.216 0 0 0 1 6.053H32.1a18.944 18.944 0 0 0-2.953-4.872l-6.171-7.47h-8.5zm34.1 0h7.53V-25h7.589v-5.02H41.076V-25h7.5zm17.333 0h7.53v-7.736h8.8v7.736h7.53v-19.695h-7.53v6.939h-8.8v-6.939h-7.53zm27.726 0h23.209v-5.02h-15.675v-2.451h12.224v-5.02h-12.224V-25h14.764v-5.02H93.635zm32.746 0h9.331l3.809-4.754 3.661 4.754h9.833L144.6-20.625l7.648-9.39h-9.419l-2.864 3.78-2.982-3.78h-9.744l7.559 9.183z" transform="translate(-3.015 54.016)" style="fill:#fff"/>
    </g>
</svg>
