<svg xmlns="http://www.w3.org/2000/svg" width="150.001" height="68" viewBox="0 0 150.001 68">
    <g data-name="그룹 472081">
        <path data-name="패스 854754" d="M0 43.696h7.53V24.001H0zm11.457 0h7.528v-7.057a14.2 14.2 0 0 0-.886-5.433h.236a17.289 17.289 0 0 0 2.75 4.783l6.5 7.707h8.268V24.001h-7.53v6.289a17.216 17.216 0 0 0 1 6.053h-.238a18.944 18.944 0 0 0-2.953-4.872l-6.171-7.47h-8.5zm34.1 0h7.53v-14.68h7.589v-5.02H38.061v5.02h7.5zm17.333 0h7.53V35.96h8.8v7.736h7.53V24.001h-7.53v6.939h-8.8v-6.939h-7.53zm27.726 0h23.209v-5.02H98.15v-2.451h12.224v-5.02H98.15v-2.189h14.764v-5.02H90.62zm32.746 0h9.331l3.809-4.754 3.661 4.754h9.833l-8.411-10.305 7.648-9.39h-9.419l-2.864 3.78-2.982-3.78h-9.744l7.559 9.183z"/>
    </g>
</svg>
