<svg xmlns="http://www.w3.org/2000/svg" width="226.871" height="100.245" data-name="그룹 470709"><defs><clipPath id="a"><path fill="#fff" stroke="#707070" d="M0 0h177.628v65.072H0z" data-name="사각형 354090"/></clipPath><clipPath id="b"><path fill="#fff" d="M0 0h174.311v59.505H0z" data-name="사각형 354089"/></clipPath></defs><path fill="rgba(255,255,255,0)" d="M0 0h226.871v100.245H0z" data-name="사각형 2580"/><g clip-path="url(#a)" data-name="마스크 그룹 5" transform="translate(26.38 17.586)"><g data-name="그룹 7277"><g data-name="그룹 7276"><path fill="#fff" d="M25.77 59.65h-.017l-1.442-4.238h-1.907v6.163h1.266V57.25h.017l1.511 4.325h1.044l1.511-4.368h.017v4.368h1.269V55.41h-1.905Z" data-name="패스 5952"/><path fill="#fff" d="m34.255 57.845-1.442-2.434h-1.519l2.262 3.763v2.4h1.355v-2.365l2.287-3.8h-1.514Z" data-name="패스 5953"/><g data-name="그룹 7275"><g fill="#fff" clip-path="url(#b)" data-name="그룹 7274" transform="translate(2.363 3.493)"><path d="M44.076 56.708a1.253 1.253 0 0 1-.971.38 1.582 1.582 0 0 1-.777-.177 1.482 1.482 0 0 1-.518-.47 2.041 2.041 0 0 1-.289-.661 3.132 3.132 0 0 1-.091-.755 3.372 3.372 0 0 1 .091-.786 2.083 2.083 0 0 1 .289-.678 1.458 1.458 0 0 1 .518-.474 1.581 1.581 0 0 1 .777-.177 1.414 1.414 0 0 1 .889.311 1.366 1.366 0 0 1 .3.341 1.106 1.106 0 0 1 .155.427h1.312a2.483 2.483 0 0 0-.294-.95 2.318 2.318 0 0 0-.591-.694 2.6 2.6 0 0 0-.812-.427 3.306 3.306 0 0 0-2.235.1 2.726 2.726 0 0 0-.954.69 3.077 3.077 0 0 0-.6 1.032 3.837 3.837 0 0 0-.207 1.282 3.709 3.709 0 0 0 .207 1.256 2.991 2.991 0 0 0 .6 1.014 2.733 2.733 0 0 0 .954.678 3.163 3.163 0 0 0 1.273.246 3.038 3.038 0 0 0 1.045-.173 2.419 2.419 0 0 0 .829-.5 2.513 2.513 0 0 0 .57-.794 3.134 3.134 0 0 0 .267-1.044h-1.31a1.756 1.756 0 0 1-.427 1" data-name="패스 5954"/><path d="M53.453 52.712a2.732 2.732 0 0 0-.949-.691 3.375 3.375 0 0 0-2.551 0 2.726 2.726 0 0 0-.954.691 3.082 3.082 0 0 0-.6 1.032 3.851 3.851 0 0 0-.207 1.282 3.722 3.722 0 0 0 .207 1.256 3.006 3.006 0 0 0 .6 1.014 2.725 2.725 0 0 0 .954.677 3.434 3.434 0 0 0 2.551 0 2.73 2.73 0 0 0 .949-.677 3.007 3.007 0 0 0 .6-1.014 3.724 3.724 0 0 0 .207-1.256 3.852 3.852 0 0 0-.207-1.282 3.082 3.082 0 0 0-.6-1.032m-.643 3.069a2.044 2.044 0 0 1-.289.66 1.481 1.481 0 0 1-.518.47 1.792 1.792 0 0 1-1.554 0 1.478 1.478 0 0 1-.518-.47 2.043 2.043 0 0 1-.289-.66 3.157 3.157 0 0 1-.09-.755 3.393 3.393 0 0 1 .09-.785 2.081 2.081 0 0 1 .289-.678 1.459 1.459 0 0 1 .518-.475 1.8 1.8 0 0 1 1.554 0 1.462 1.462 0 0 1 .518.475 2.081 2.081 0 0 1 .289.678 3.369 3.369 0 0 1 .091.785 3.135 3.135 0 0 1-.091.755" data-name="패스 5955"/><path d="M56.733 58.081h1.355v-2.546h2.581v-1.053h-2.581v-1.424h2.978v-1.14h-4.333Z" data-name="패스 5956"/><path d="M63.578 58.081h1.355v-2.546h2.581v-1.053h-2.58v-1.424h2.978v-1.14h-4.333Z" data-name="패스 5957"/><path d="M71.778 55.431h2.986v-1.054h-2.986v-1.32h3.254v-1.14h-4.609v6.163h4.679v-1.139h-3.323Z" data-name="패스 5958"/><path d="M79.098 55.431h2.986v-1.054h-2.986v-1.32h3.254v-1.14h-4.609v6.163h4.679v-1.139h-3.323Z" data-name="패스 5959"/><path d="M84.993 58.077h.621a.736.736 0 0 1-.034.272.768.768 0 0 1-.13.242.886.886 0 0 1-.2.185.682.682 0 0 1-.246.1v.621a1.9 1.9 0 0 0 .522-.159 1.523 1.523 0 0 0 .427-.3 1.383 1.383 0 0 0 .289-.427 1.325 1.325 0 0 0 .108-.54v-1.329h-1.355Z" data-name="패스 5960"/><path d="M98.303 52.712a2.733 2.733 0 0 0-.949-.691 3.375 3.375 0 0 0-2.551 0 2.727 2.727 0 0 0-.954.691 3.075 3.075 0 0 0-.6 1.032 3.841 3.841 0 0 0-.207 1.282 3.713 3.713 0 0 0 .207 1.256 3 3 0 0 0 .6 1.014 2.726 2.726 0 0 0 .954.677 3.434 3.434 0 0 0 2.551 0 2.731 2.731 0 0 0 .949-.677 3.007 3.007 0 0 0 .6-1.014 3.722 3.722 0 0 0 .207-1.256 3.851 3.851 0 0 0-.207-1.282 3.083 3.083 0 0 0-.6-1.032m-.643 3.069a2.041 2.041 0 0 1-.289.66 1.48 1.48 0 0 1-.518.47 1.792 1.792 0 0 1-1.554 0 1.479 1.479 0 0 1-.518-.47 2.042 2.042 0 0 1-.289-.66 3.157 3.157 0 0 1-.09-.755 3.393 3.393 0 0 1 .09-.785 2.08 2.08 0 0 1 .289-.678 1.46 1.46 0 0 1 .518-.475 1.8 1.8 0 0 1 1.554 0 1.461 1.461 0 0 1 .518.475 2.078 2.078 0 0 1 .289.678 3.366 3.366 0 0 1 .091.785 3.132 3.132 0 0 1-.091.755" data-name="패스 5961"/><path d="M105.632 55.75a1.54 1.54 0 0 1-.276 1.014 1.269 1.269 0 0 1-1 .324 1.56 1.56 0 0 1-.66-.116.96.96 0 0 1-.565-.729 2.776 2.776 0 0 1-.043-.492v-3.834h-1.355v3.833a2.356 2.356 0 0 0 .686 1.864 3.393 3.393 0 0 0 3.871 0 2.336 2.336 0 0 0 .7-1.86v-3.837h-1.355Z" data-name="패스 5962"/><path d="M114.975 57.372c-.014-.138-.024-.273-.03-.406l-.017-.345a3.754 3.754 0 0 0-.065-.466 1.583 1.583 0 0 0-.151-.427 1.181 1.181 0 0 0-.268-.336 1.041 1.041 0 0 0-.414-.212v-.017a1.436 1.436 0 0 0 .746-.6 1.854 1.854 0 0 0 .229-.941 1.738 1.738 0 0 0-.125-.66 1.6 1.6 0 0 0-.363-.54 1.723 1.723 0 0 0-.57-.367 1.987 1.987 0 0 0-.746-.134h-3.323v6.163h1.355v-2.408h1.355a1.006 1.006 0 0 1 .734.225 1.223 1.223 0 0 1 .293.707q.052.371.078.777a2.389 2.389 0 0 0 .138.7h1.355a.912.912 0 0 1-.143-.315 2.7 2.7 0 0 1-.069-.393m-1.558-2.874a1.025 1.025 0 0 1-.7.207h-1.485v-1.735h1.485a1.043 1.043 0 0 1 .7.2.821.821 0 0 1 .233.652.86.86 0 0 1-.233.673" data-name="패스 5963"/><path d="M120.616 53.057h1.847v5.023h1.355v-5.023h1.847v-1.139h-5.049Z" data-name="패스 5964"/><path d="m128.989 51.917-2.331 6.163h1.364l.483-1.373h2.3l.466 1.373h1.407l-2.3-6.163Zm-.129 3.781.8-2.261h.017l.777 2.261Z" data-name="패스 5965"/><path d="M138.976 54.731a1.538 1.538 0 0 0 .626-.51 1.352 1.352 0 0 0 .212-.777 1.654 1.654 0 0 0-.143-.725 1.184 1.184 0 0 0-.4-.47 1.737 1.737 0 0 0-.621-.255 3.847 3.847 0 0 0-.8-.078h-2.9v6.163h2.986a3.162 3.162 0 0 0 .807-.1 2.162 2.162 0 0 0 .7-.319 1.58 1.58 0 0 0 .488-.558 1.692 1.692 0 0 0 .181-.807 1.712 1.712 0 0 0-.28-.989 1.48 1.48 0 0 0-.85-.574m-2.676-1.761h1.269a2.023 2.023 0 0 1 .35.03.878.878 0 0 1 .3.108.575.575 0 0 1 .207.216.717.717 0 0 1 .078.354.653.653 0 0 1-.233.561.977.977 0 0 1-.6.173h-1.372Zm2.369 3.643a.649.649 0 0 1-.22.246.924.924 0 0 1-.319.129 1.773 1.773 0 0 1-.379.039h-1.45v-1.692h1.476a1.142 1.142 0 0 1 .708.2.8.8 0 0 1 .268.678.848.848 0 0 1-.082.4" data-name="패스 5966"/><path d="M144.102 51.917h-1.359v6.163h4.359v-1.139h-3Z" data-name="패스 5967"/><path d="M150.948 56.941V55.43h2.986v-1.053h-2.986v-1.32h3.254v-1.14h-4.609v6.163h4.679v-1.139Z" data-name="패스 5968"/><path d="M13.173 16.728c1.807 0 4.2 1.05 6.762 3.031l4.371-5.6a17.264 17.264 0 0 0-11.657-4.372C6.411 9.792.991 13.523.991 19.934c0 6.3 4.955 7.811 9.268 9.152 2.1.7 3.73 1.282 3.73 3.03 0 1.515-1.107 2.215-2.681 2.215-2.739 0-6.645-1.632-8.8-2.972L0 38.178a21.622 21.622 0 0 0 11.716 3.264c7.17 0 11.949-3.439 11.949-9.967 0-6.121-4.9-7.811-9.151-9.268-2.331-.816-4.022-1.516-4.022-3.205 0-1.4 1.049-2.273 2.681-2.273" data-name="패스 5969"/><path d="M114.551 17.486c2.157 0 3.672 1.457 5.071 3.381l5.945-5.013c-2.972-4.721-7.228-6.062-11.424-6.062-6.994 0-14.4 4.6-14.4 16.146 0 .17.005.335.008.5a32.092 32.092 0 0 1-6.125 5.277v-.009a13.212 13.212 0 0 1-7.17 2.507 5.424 5.424 0 0 1-5.77-4.722c6.179-.35 15.271-2.157 15.271-10.55 0-6.178-4.08-9.151-10.2-9.151-9.909 0-14.979 8.16-14.979 16.612a22.375 22.375 0 0 0 .584 5.29 25.734 25.734 0 0 1-2.575 1.4 8.217 8.217 0 0 1-2.847.71c-1.865 0-2.565-1.224-2.565-3.847V.001h-9.734v27.49a34.019 34.019 0 0 1-5.175 4.246l-.012-.028a13.21 13.21 0 0 1-7.169 2.507 5.424 5.424 0 0 1-5.77-4.722c6.178-.35 15.271-2.157 15.271-10.55 0-6.178-4.08-9.151-10.2-9.151-9.909 0-14.98 8.16-14.98 16.612 0 8.86 4.08 15.038 14.28 15.038a19.946 19.946 0 0 0 11.108-3.252 26.518 26.518 0 0 0 3.231-2.409c.912 3.226 3.225 5.661 9.034 5.661a16.666 16.666 0 0 0 7.138-1.542 20.412 20.412 0 0 0 4.119-2.2c2.3 2.369 5.745 3.736 10.542 3.736a19.66 19.66 0 0 0 11.191-3.322v-.005a28.7 28.7 0 0 0 5.018-4.13c2.2 4.908 6.674 7.457 12.7 7.457a17.781 17.781 0 0 0 10.958-3.381l-3.439-6.586c-2.39 1.69-4.08 2.39-6.12 2.39-3.905 0-5.887-3.148-5.887-8.336 0-5.246 1.865-8.044 5.071-8.044m-74.548-.874a2.234 2.234 0 0 1 2.391 2.395c0 2.856-4.139 4.2-7.286 4.371.175-4.022 1.982-6.761 4.9-6.761m45.171 0a2.234 2.234 0 0 1 2.39 2.39c0 2.856-4.138 4.2-7.286 4.371.175-4.022 1.982-6.761 4.9-6.761" data-name="패스 5970"/><path d="M140.837 34.101c-1.982 0-3.5-.991-3.5-4.2V18.244h7.285v-7.519h-7.285V.001h-9.79v30.31c0 5.479.7 11.133 10.259 11.133a16.093 16.093 0 0 0 8.335-2.156l-2.157-6.179a6.673 6.673 0 0 1-3.148.991" data-name="패스 5971"/><path d="M160.73 9.792c-6.353 0-14.339 3.789-14.339 16.029 0 10.608 5.188 15.621 13.464 15.621 8.044 0 14.455-5.6 14.455-16.553 0-13.7-8.976-15.1-13.581-15.1m-.408 24.539c-3.5 0-3.964-4.546-3.964-9.617 0-4.78 1.224-7.927 3.964-7.927 2.972 0 3.963 3.031 3.963 8.976 0 5.713-1.107 8.569-3.963 8.569" data-name="패스 5972"/></g></g></g></g></g></svg>