<svg xmlns="http://www.w3.org/2000/svg" width="226.36" height="99.662"><defs><clipPath id="a"><path fill="#383838" d="M0 0h148.36v69.662H0z" data-name="사각형 354201"/></clipPath></defs><g data-name="그룹 470712"><path fill="rgba(255,255,255,0)" d="M0 0h226.36v99.662H0z" data-name="사각형 2589"/><g fill="#383838" clip-path="url(#a)" data-name="그룹 470721" transform="translate(38.875 8)"><path d="M148.361 47.752a12.947 12.947 0 0 0-.89 2.131.6.6 0 0 1-.678.461c-.705-.029-1.413 0-2.12-.012-.313-.007-.473.067-.471.425.011 2.324-.009 4.649.015 6.973a1.506 1.506 0 0 0 1.82 1.555 3.222 3.222 0 0 0 1.226-.381c.274-.152.387-.131.388.226a3.081 3.081 0 0 1-2.627 3.22 5.268 5.268 0 0 1-1.8.046 3.16 3.16 0 0 1-2.737-3.353c-.012-2.634 0-5.269 0-7.9 0-.911.061-.8-.806-.8-.5 0-1-.016-1.5 0-.329.014-.469-.093-.46-.437.017-.637.02-1.275 0-1.911-.013-.371.142-.48.489-.467.534.019 1.07-.023 1.6.013.494.034.726-.084.691-.642a4.428 4.428 0 0 1 .314-1.769 2.857 2.857 0 0 1 3.021-1.943c.351.025.375.21.374.475 0 1.085.025 2.17-.012 3.254-.017.513.165.64.65.629 1.171-.027 2.343 0 3.515.005Z" data-name="패스 863755"/><path d="M73.171 22.727a23.447 23.447 0 0 1-5.5 2.387 22.946 22.946 0 0 1-7.675.771 22.857 22.857 0 0 0-1.756-.042c-2.451.046-3.777 1.285-4.025 3.735-.163 1.611-.114 3.234-.307 4.843a12.164 12.164 0 0 1-.825 3.5 2.126 2.126 0 0 1-.38.668c-.182-.037-.176-.205-.218-.32a28.11 28.11 0 0 0-3.969-7.328c-.2-.268-.1-.472-.019-.712q2.3-6.44 4.605-12.88a1.288 1.288 0 0 0 .1-.569l-1.916 2.341q-3.51 4.3-7.013 8.616a.887.887 0 0 1-.9.394 22.58 22.58 0 0 0-4.592-.042c-.08.007-.161 0-.269 0 .134-.244.353-.326.524-.46a7.523 7.523 0 0 0 2.4-8.606 29.427 29.427 0 0 0-1.333-3.133 6.777 6.777 0 0 1-.729-3.9 5.777 5.777 0 0 1 3.216-4.243c1.72-.951 1.854-.931 3.335.3a38.71 38.71 0 0 1 7.216 7.917 1 1 0 0 0 .871.494 39.578 39.578 0 0 1 18.837 6.038c.087.054.168.117.326.228" data-name="패스 863756"/><path d="M28.675 46.576c.519-.684 1-1.311 1.471-1.94q3.222-4.269 6.435-8.544a.941.941 0 0 1 .859-.425c2.086.019 4.171.008 6.257.01.151 0 .3.013.5.022a1.663 1.663 0 0 1-.41.612q-4.7 5.766-9.421 11.521a.646.646 0 0 0-.009.992q5.058 6.374 10.082 12.774c.112.142.273.262.287.471a.82.82 0 0 1-.5.061c-2.207 0-4.413-.006-6.62.011a.88.88 0 0 1-.805-.416q-3.828-5.234-7.68-10.45c-.121-.164-.245-.325-.389-.516a.863.863 0 0 0-.113.623c-.014 2.066.058 4.136-.05 6.2a4.855 4.855 0 0 1-4.832 4.837c-1.5.109-1.248.246-1.249-1.131q-.013-12.451 0-24.9c0-.706 0-.707.692-.707 1.6 0 3.207.016 4.809-.01.466-.008.615.117.612.6-.021 3.22-.012 6.441-.008 9.661a1.173 1.173 0 0 0 .092.648" data-name="패스 863757"/><path d="M8.749 62.683a18.22 18.22 0 0 1-8.4-2.043c-.374-.2-.436-.359-.222-.74q1.048-1.869 2.019-3.781c.2-.387.325-.478.749-.229a10.755 10.755 0 0 0 6.24 1.678 4.882 4.882 0 0 0 1.983-.53 2.137 2.137 0 0 0 .507-3.638 6.247 6.247 0 0 0-1.483-1.026c-1.089-.556-2.189-1.09-3.279-1.644a16.862 16.862 0 0 1-3.287-2.131C.133 45.695.414 40.052 3.9 37.236a10.019 10.019 0 0 1 6.454-2.105 18.96 18.96 0 0 1 6.678 1.195c.389.142.508.3.347.705a10.624 10.624 0 0 1-.879 1.976 3.083 3.083 0 0 1-3.19 1.453 15.006 15.006 0 0 0-3.032-.258 4.008 4.008 0 0 0-1.3.3 2.051 2.051 0 0 0-.841 3.255 4.882 4.882 0 0 0 1.713 1.306c1.165.6 2.348 1.157 3.519 1.742a16.291 16.291 0 0 1 2.874 1.824 7.63 7.63 0 0 1-.632 12.15 11.852 11.852 0 0 1-6.862 1.9" data-name="패스 863758"/><path d="M43.172 6.069a8.7 8.7 0 0 0-2.829 1.551 6.5 6.5 0 0 0-1.989 7.294 35.009 35.009 0 0 0 1.43 3.373 8.256 8.256 0 0 1 .706 4.681 6.125 6.125 0 0 1-2.237 3.832 10.313 10.313 0 0 1-5.258 2.236c-1.051.147-1.265-.03-1.383-1.071-.3-2.65-.582-5.3-.872-7.954l-1.087-9.956c-.322-2.942-.654-5.883-.966-8.827-.116-1.059.223-1.367 1.266-1.173a32.351 32.351 0 0 1 9.116 3.4A38.126 38.126 0 0 1 42.786 5.7c.137.094.314.151.386.372" data-name="패스 863759"/><path d="M59.34 27.082a26.871 26.871 0 0 0 5.108-.052 24.661 24.661 0 0 0 9.474-3.215.785.785 0 0 1 1.005.065 30.922 30.922 0 0 1 4.565 3.949c.926 1.022.84 1.4-.4 1.976q-9.207 4.278-18.416 8.553c-1.968.914-3.934 1.834-5.9 2.743-.777.359-1.184.195-1.472-.546a.484.484 0 0 1 .054-.523 10.682 10.682 0 0 0 1.807-5.364c.176-1.541.076-3.1.274-4.635.268-2.083 1.223-2.9 3.337-2.948h.569" data-name="패스 863760"/><path d="M107.146 55.557a57.687 57.687 0 0 0-.164-6.179c-.05-.392-.121-.782-.184-1.172-.029-.178-.039-.327.18-.419a3.248 3.248 0 0 1 3.181.678c.193.207.226.649.521.621.244-.023.456-.337.694-.507a5.891 5.891 0 0 1 7.366.085 4.547 4.547 0 0 1 1.569 3.48c.05 3.185.021 6.372.035 9.558 0 .35-.147.44-.466.436-.879-.013-1.759-.027-2.637.005-.463.017-.588-.154-.585-.6.016-2.5.007-4.994.008-7.492a5.737 5.737 0 0 0-.112-1.283 2.729 2.729 0 0 0-3.684-2.054 5.837 5.837 0 0 0-.573.235 2.17 2.17 0 0 0-1.485 2.327c.126 2.733.029 5.475.048 8.213 0 .485-.125.675-.636.651a23.541 23.541 0 0 0-2.43 0c-.55.031-.663-.188-.656-.685.024-1.86.01-3.72.01-5.9" data-name="패스 863761"/><path d="M82.24 50.129c0-3.2.01-6.4-.011-9.606 0-.494.13-.644.634-.638a2.9 2.9 0 0 1 3.1 3.162q.012 7.178 0 14.357v.516a1.308 1.308 0 0 0 1.7 1.434c.845-.132.845-.132.691.719a2.742 2.742 0 0 1-2.662 2.371 4.846 4.846 0 0 1-1.185-.044 2.6 2.6 0 0 1-2.262-2.717c-.014-2.479 0-4.958 0-7.437v-2.117" data-name="패스 863762"/><path d="M79.166 53.708a6.8 6.8 0 0 0-5.33-6.164 16.744 16.744 0 0 0-7.666.421.8.8 0 0 0-.73.941c.023 6.713.014 13.427.016 20.14 0 .205.025.411.039.616h1.242c1.94-.8 2.466-1.6 2.466-3.738 0-1.05.014-2.1-.007-3.15-.008-.39.087-.534.5-.431a9.452 9.452 0 0 0 2.876.191 6.815 6.815 0 0 0 6.179-4.647 9.958 9.958 0 0 0 .419-4.178m-4.215 2.928a3.952 3.952 0 0 1-4.263 2.871c-1.484-.119-1.484-.119-1.484-1.586v-3.049c0-1.275.015-2.549-.008-3.824-.008-.416.145-.57.546-.629a6.358 6.358 0 0 1 1.956-.052 3.8 3.8 0 0 1 3.256 2.857 5.984 5.984 0 0 1-.007 3.414" data-name="패스 863763"/><path d="M103.792 61.595a25.581 25.581 0 0 1-.392-5.508c0-1.485.016-2.622 0-3.757a4.629 4.629 0 0 0-3.832-4.775 10.22 10.22 0 0 0-7.037.854c-1.276.639-1.1.416-.461 1.564a1.383 1.383 0 0 0 1.79.736c.351-.085.69-.216 1.035-.323a5.342 5.342 0 0 1 3.1-.14 2.135 2.135 0 0 1 1.648 2.218c0 .358-.114.488-.474.476a17.716 17.716 0 0 0-2.425.078 8.958 8.958 0 0 0-3.644 1.057 4.214 4.214 0 0 0-2.23 4.221 4.069 4.069 0 0 0 2.871 3.8 5.552 5.552 0 0 0 5.883-1.077c.285-.258.388-.2.555.1a1.89 1.89 0 0 0 .915.807 4.148 4.148 0 0 0 2.538.029c.214-.043.2-.186.16-.355m-4.974-2.592a3.847 3.847 0 0 1-2.442.432 1.966 1.966 0 0 1-1.665-1.785 1.853 1.853 0 0 1 1.214-1.853 5.487 5.487 0 0 1 2.381-.337c1.33 0 1.33 0 1.33 1.323v.258a2.9 2.9 0 0 0 .005.566c.146.721-.216 1.107-.823 1.4" data-name="패스 863764"/><path d="M136.162 52.047a6.427 6.427 0 0 0-12.247-.485 9.419 9.419 0 0 0-.085 6.48 6.161 6.161 0 0 0 4.66 4.19 9.868 9.868 0 0 0 3.952.079 8.179 8.179 0 0 0 3.256-1.25c.131-.087.315-.144.248-.389a2.312 2.312 0 0 0-2.076-1.594 5.612 5.612 0 0 0-1.463.287c-2.731.7-4.811-.462-5.307-2.945-.079-.4.022-.515.425-.51 1.413.018 2.826.007 4.24.007 1.43 0 2.861-.012 4.291.007.388.005.511-.121.5-.5a12.878 12.878 0 0 0-.4-3.373m-3.943 1.2h-4.759c-.26 0-.44-.047-.4-.37a2.846 2.846 0 0 1 3.639-2.631 3.06 3.06 0 0 1 1.941 2.644c.008.335-.172.359-.42.357" data-name="패스 863765"/></g></g></svg>