<svg xmlns="http://www.w3.org/2000/svg" width="227.168" height="100.68" data-name="그룹 470710"><path fill="rgba(255,255,255,0)" d="M0 0h227.168v100.68H0z" data-name="사각형 2588"/><g data-name="그룹 3272" style="isolation:isolate"><g data-name="그룹 3269"><g data-name="그룹 3268"><path fill="#fff" fill-rule="evenodd" d="M54.22 47.322a22.856 22.856 0 0 1 11.009.023l-1.407-5.547-1.34-.027-.222 1.656h-1.589l-.186-1.629-1.511-.027-.182 1.656-1.6-.017-.194-1.626h-1.359l-1.418 5.538Z" data-name="패스 2442"/></g><path fill="#fff" fill-rule="evenodd" d="M59.666 55.728Zm14.667-2.022c3.711 5.368 2.427 11.934 2.427 11.934a16.5 16.5 0 0 1-12.42-3.525 15.25 15.25 0 0 1-4.672-6.386 15.25 15.25 0 0 1-4.672 6.386 16.5 16.5 0 0 1-12.42 3.525s-1.3-6.612 2.462-11.988c-9.11 2.1-15.27 6.117-15.27 10.738 0 6.083 10.677 11.121 24.71 12.116v-8.124h2.257v8.246c.559.021 1.125.038 1.692.045V65.098h2.257v11.575q.861-.011 1.708-.045v-8.246h2.255v8.123c14.038-.994 24.719-6.033 24.719-12.116 0-4.58-6.052-8.567-15.033-10.684Z" data-name="패스 2443"/><path fill="#fff" fill-rule="evenodd" d="M50.013 33.812a18.155 18.155 0 0 0-13.142 2.469 14.74 14.74 0 0 0 .622 3.751 14.632 14.632 0 0 1 16.1-1.313 14.6 14.6 0 0 1 6.149-15 14.27 14.27 0 0 0-3.378-1.718 18.2 18.2 0 0 0-6.351 11.811ZM34.837 42.72a17.692 17.692 0 0 0 3.872 5.822c.421.425.851.829 1.3 1.215a18.566 18.566 0 0 0 5.582 3.16 13.655 13.655 0 0 1 2.976-2.722 14.481 14.481 0 0 1-7.056-3.657 14.4 14.4 0 0 1-4.016-6.506 14.874 14.874 0 0 0-2.658 2.689Zm34.628-8.908a18.155 18.155 0 0 0-6.352-11.809 14.225 14.225 0 0 0-3.374 1.718 14.571 14.571 0 0 1 6.149 15 14.648 14.648 0 0 1 16.105 1.313 15.767 15.767 0 0 0 .613-3.751 18.168 18.168 0 0 0-13.141-2.471Zm12.528 6.22a14.335 14.335 0 0 1-4.028 6.506 14.84 14.84 0 0 1-7.159 3.684 13.621 13.621 0 0 1 2.971 2.735 18.451 18.451 0 0 0 5.69-3.2c.447-.386.883-.79 1.3-1.215a17.9 17.9 0 0 0 3.881-5.822 15.741 15.741 0 0 0-2.655-2.688Z" data-name="패스 2444"/></g><g fill="#fff" data-name="그룹 3271"><g data-name="그룹 3270"><path d="M139.249 65.016a3.368 3.368 0 0 0 .941 2.541 3.691 3.691 0 0 0 2.647.911h16.678V55.18h-20.267Zm4.764-7.2h10.742v8.009H144.01Z" data-name="패스 2445"/><path d="M159.516 35.673h-4.762v11.279a22.149 22.149 0 0 1-2.589.832 15.082 15.082 0 0 1-3.511.39h-8.6v-12.5h-4.751v11.865a3.206 3.206 0 0 0 .861 2.447 3.642 3.642 0 0 0 2.571.824h9.707a11.112 11.112 0 0 0 3.553-.573 16.137 16.137 0 0 0 2.759-1.193v4.373h4.762v-9.786h5.324V40.99h-5.324Z" data-name="패스 2446"/></g><path d="M190.159 35.672v32.8h4.773v-32.8Z" data-name="패스 2447"/><path d="M121.462 41.871h-6.678v2.643h6.678v8.9h4.76V35.66h-4.76Z" data-name="패스 2448"/><path d="M116.655 54.253c-5.367 0-9.57 3.321-9.57 7.571s4.2 7.57 9.57 7.57 9.568-3.322 9.568-7.57-4.205-7.571-9.568-7.571Zm0 12.519a4.789 4.789 0 0 1-4.811-4.948 4.788 4.788 0 0 1 4.811-4.947 4.787 4.787 0 0 1 4.808 4.947 4.788 4.788 0 0 1-4.808 4.948Z" data-name="패스 2449"/><path d="M113.073 47.039a12.4 12.4 0 0 1-2.7-7.855v-3.511h-4.877v3.511a12.384 12.384 0 0 1-2.69 7.855 23.7 23.7 0 0 1-5.241 4.041l2.135 2.086a38.2 38.2 0 0 0 4.631-3.034 14.416 14.416 0 0 0 3.613-4.419 14.458 14.458 0 0 0 3.609 4.418 37.967 37.967 0 0 0 4.627 3.034l2.14-2.086a23.644 23.644 0 0 1-5.247-4.04Z" data-name="패스 2450"/><path d="M182.597 51.27c-2.383-2.874-2.724-5.42-2.822-9.222v-6.375H174.9v6.375c-.093 3.8-.434 6.347-2.813 9.222a22.811 22.811 0 0 1-5.124 4.042l2.136 2.085a22.536 22.536 0 0 0 4.506-3.157c2.913-2.9 3.609-4.432 3.735-5.041.121.61.822 2.144 3.728 5.041a22.568 22.568 0 0 0 4.51 3.157l2.138-2.085a22.735 22.735 0 0 1-5.119-4.042Z" data-name="패스 2451"/></g></g></svg>